<?xml version="1.0" encoding="UTF-8"?>
<svg id="Layer_1" xmlns="http://www.w3.org/2000/svg" version="1.1" viewBox="0 0 487 300">
  <!-- Generator: Adobe Illustrator 29.8.7, SVG Export Plug-In . SVG Version: 2.1.1 Build 1)  -->
  <defs>
    <style>
      .st0 {
        fill: none;
        stroke: #000;
      }

      .st1 {
        fill: #e0e4e8;
      }

      .st1, .st2, .st3 {
        stroke: #fff;
        stroke-linejoin: round;
        stroke-width: .9px;
      }

      .st2 {
        display: none;
      }

      .st2, .st3 {
        fill: #7dd2ec;
      }

      .st4, .st5 {
        isolation: isolate;
      }

      .st5 {
        fill: #235672;
        font-family: Arial-BoldMT, Arial;
        font-size: 10.7px;
        font-weight: 700;
      }
    </style>
  </defs>
  <path class="st1" d="M13.3,288v-.3s-.1,0-.1,0v.2h.1ZM16.1,287.8l.2-.2h-.1c0,0,0,.2,0,.2h0ZM18.3,288.3h.1c0,0,0,0,0,0h0c0,0,0,0,0,0ZM16.5,287.4v-.2s-.1,0-.1,0v.2c.1,0,.1,0,.1,0ZM20.3,288.1h0s0,0,0,0h0c0,0,0,0,0,0ZM17.4,287.3v-.3c0,0,0,0,0,0v.3s0,0,0,0ZM22,286.2l-1,.2-2.1,1.8h.8c0,0,2.4-1.1,2.4-1.1v-.8h-.1ZM26.8,285.9h0c0-.1,0-.2,0-.2v.2c0,0,0,0,0,0ZM25.4,285.4l-1.1.2v1.3c.1,0-.9.4-.9.4l2.7-.6.3-1.1-.9.3-.2-.6h0ZM28.9,286h-.4c0-.1.3.1.3.1h.1ZM29.7,286h-.6c0-.1,0,0,0,0h.7c0,0,0,0,0,0ZM27.6,285.2h-.6c0,0,1,.3,1,.3l-.4-.3ZM30.2,285.8h0c0,0-.2,0-.2,0h.3ZM28.5,285.1h-.2c0-.1,0,.5,0,.5l.2-.5h0ZM35.6,286.5h0s0,0,0,0h.1ZM35.8,286.4h0c0,0-.1-.2-.1-.2v.2ZM34.8,286v.2c.1,0,.1,0,.1,0v-.2ZM35.3,286.1l-.5-.2.6.5v-.3ZM36.1,285.4h0s0,0,0,0h0c0,0,0,0,0,0ZM42.7,286.4v-.3s-.1,0-.1,0v.2ZM103.3,289.9v-.2c0,0,0,.1,0,.1h0ZM35.2,284.1h0s0,0,0,0h0s0,0,0,0ZM105,289.1l.2.3h.1s-.3-.3-.3-.3ZM43.4,285.8h0c0,0,0,.3,0,.3v-.3c0,0,0,0,0,0ZM36.5,284.7l.2-.5h0s0,.5,0,.5h0ZM108.5,288.6l-.5.2.4.3.2-.5h0ZM37.5,284.3v-.2c0,0,0,.1,0,.1h0ZM33.3,283l-1.4.3-1.4.7v1c0,0,1.5-.6,1.5-.6l1.8-1.3-.5-.2ZM43.3,285.4l-.3.3h.3c0,0,0-.3,0-.3ZM108.6,288.3v-.3c0,0-.1,0-.1,0v.2c.1,0,.1,0,.1,0ZM38,283.7h-.4c0,0,.4.3.4.3v-.3ZM104.8,288.1h-.2c0,0,0,.6,0,.6v-.6ZM38.9,283.7h-.2s.2.2.2.2v-.2ZM43,285h-.1s-.1-.1-.1-.1h.3c0,.1,0,.1,0,.1ZM38.4,283.6l-.3-.2v.2c0,0,.3,0,.3,0h0ZM42.2,284.4l-.5.2-.4,1,.9-1.1h0ZM103.6,287.6v.4c-.1,0,.2-.3.2-.3l-.2-.2ZM40.5,283.7l.3.7v-.8c.1,0-.3.1-.3.1ZM35.6,282.4h.4c0-.1,0-.2,0-.2l-.4.2h0ZM35,282h0c0-.1,0,0,0,0h.1c0,0,0,0,0,0ZM103.7,287.2h0c0-.1,0,0,0,0h.2ZM41.6,283.3h-.1c0,0-.1,0-.1,0h.3ZM103.1,287.2v-.3c.1,0,0,0,0,0v.4s0,0,0,0ZM102.7,286.8l-.2.2.3.2v-.4c0,0,0,0,0,0ZM44,282.5v-.2c-.1,0-.1,0-.1,0h.1c0,.1,0,.1,0,.1ZM102.7,285.7l.4.3.2-.2h-.7ZM103.5,285.4h-.2c0,.1.2.4.2.4v-.4c0,0,0,0,0,0ZM102.1,285.5v-.3c0,0-.2.1-.2.1l.2.2h0ZM108.1,284.6l-1.2,2.1,1.4.6.6-.5v-.8c0,0-.8-1.5-.8-1.5ZM40.6,280.7h0s0,0,0,0h.1ZM103.1,284.2l-.6.4v.7s.6-1.1.6-1.1ZM50,282v-.3s0,.1,0,.1h0ZM105.1,283.9l-.2.5,1-.3h-.8c0-.1,0-.1,0-.1ZM102.6,283.5l.7,2.8.4.2,1.5,1.6,1,1.6.6.2-.6-1.2v-1.1c.1,0,0-.7,0-.7l-1.5-2.1-1.1-1.2h-1c0,0,0,0,0,0ZM47.7,280.9v-.2s-.1,0-.1,0v.2c.1,0,.1,0,.1,0ZM104.7,282.9l-.4.8.5-.2v-.6ZM49.6,280.2h-.3s-.3,0-.3,0h.6ZM55.4,281l-.3.4v-.4c.1,0,.3,0,.3,0h0ZM56.3,281.1h-.5s.2.4.2.4l.3-.4ZM21.9,273.1l.5.3h0c0-.1-.5-.3-.5-.3ZM44.5,278.8h0c0,0,0,0,0,0h0ZM44.6,278.8h0s0,0,0,0h0c0,0,0,0,0,0ZM104,281.5v1.2s.7-.3.7-.3l-.7-.9ZM46.2,278.1h0s0,0,0,0h0s0,0,0,0ZM101.5,281.5h-.9c0,.1.7,1,.7,1v1.9s.7-.5.7-.5v-1.3c0,0-.4-1.1-.4-1.1h0ZM101.9,280.6v.9c-.1,0,.9,1.4.9,1.4v-1.4c0,0,1.1.5,1.1.5l-.4-1.2-.4.2-1.2-.5h0ZM97.8,280.2l-.5,1.1.6-.6v-.4ZM51.9,277.3h0c0,0,0,0,0,0h0s0,0,0,0ZM57.3,277.8v-.2c-.1,0,0,.3,0,.3h0c0,0,0,0,0,0ZM98.1,279.3l.3,2.5,1.3,2v-2.8c.1,0-.7-1.7-.7-1.7h-.8ZM60.7,276.1h-.2c0,.1.3.3.3.3v-.3c-.1,0-.1,0-.1,0ZM59.9,276.1v-.2c0,0-.1,0-.1,0v.2c.1,0,.1,0,.1,0ZM59.4,276.1l-.2.4-1.5-.5-.2,2.4-.6-1.5-1.1.4-.5.7.4,1.6h.7c0,.1.8-.6.8-.6l-.9,1.4.3.2,1-.8-.3-.4.9-.6h1c0,0,1.5-.6,1.5-.6l.5-.7-.7-.2.4-.6-1.4-.7h0ZM96,277.1l-.4-.3v.4s.4,0,.4,0h0ZM59.1,275.3v.3s.4.2.4.2l-.4-.5ZM97.3,276.1l-1.2.4.3,1-.3.4,1.2,1.3v-1.2s1.6,1.1,1.6,1.1l-1.9-2.1,1.5.8v-1.3c.1,0-1.2-.4-1.2-.4h0ZM96.5,276h-.1c0-.1,0,0,0,0h.2c0,0,0,0,0,0ZM100.1,275.7l-.4-.3-.2.3h.6ZM97.6,275.7h-.4c0-.1,0,0,0,0h.4ZM99,275.4l1.2,4.2.3-2h.8c0,0-.8-1.4-.8-1.4h-1.1c0,0-.5-.7-.5-.7h0ZM60.5,273.9l-1.5,1,.6.8,1.8-.4v-1c.1,0-.9-.4-.9-.4h0ZM44.9,270.8h0c0,0,0,0,0,0h0ZM44.3,270.5v-.3s0,0,0,0v.2ZM62.1,272.1h-.1c0,0,0,.1,0,.1h.1ZM61.5,272h0c0,0-.2.1-.2.1h.2ZM62.9,271.6h-.1c0,0,0,0,0,0h.1ZM63.4,271.5h-.1c0,0,0,0,0,0h.2ZM62.7,271.3h-.2s0,0,0,0h.2s0,0,0,0ZM74.3,271.2h0c0-.1-.1,0-.1,0h0ZM78.1,269.7l.8-.8h-.3c0,.1-.5.8-.5.8ZM71,268.7l.3-.2v-.2c.1,0-.3.4-.3.4ZM71.1,268l-.3.2h.4c0,0-.1-.2-.1-.2ZM61.5,267.2v-.3s-.1,0-.1,0v.3c.1,0,.1,0,.1,0ZM70.9,268l-.2.2-.2.3.4-.4ZM77.4,268h0s0,0,0,0h-.1ZM77.7,268h-.1s0,0,0,0h.1ZM77,267.9h0c0,0,0,0,0,0h0ZM72.2,267.7l.2-.3-.3.3h0ZM75.8,267.4h0s0,0,0,0ZM73,267.2l-1.7,2.3,2.1-2.1-.4-.2h0ZM71.1,267.3v-.3c-.1,0-.2.1-.2.1h.2ZM75.6,267.2h0s0,0,0,0h0s0,0,0,0ZM77.1,267.5v-.4c0,0-.1.1-.1.1v.3ZM34,260.4h-2.9s1.1,1.7,1.1,1.7l.8.4h1.4c0,.1-.5-2.1-.5-2.1h0ZM74.2,266.8v.4c0,0,.4-.4.4-.4h-.4s0,0,0,0ZM71.8,266.5l-.3,1.3.4-.8v-.5c0,0,0,0,0,0ZM20.5,255v-.2s0,0,0,0v.3s0,0,0,0ZM71.3,265.5v.2s.1,0,.1,0v-.2ZM71,265.7v-.4c0,0-.2.1-.2.1l.2.3h0ZM73.9,265.3v-.2s-.2.1-.2.1h.2c0,.1,0,.1,0,.1ZM71.2,264.6v.6s.2-.4.2-.4l-.2-.2h0ZM66.8,263.4v-.2c0,0,0,0,0,0v.2s0,0,0,0ZM35.9,254.4v-.4c.1,0,0,0,0,0v.3ZM36.2,253.8h-.1c0,0,0,0,0,0h.1ZM38.8,252.2h0c0,0,0-.1,0-.1h0ZM38.8,251.9h0c0-.1,0-.1,0-.1h0ZM40,250.2h0s-.1,0-.1,0h0ZM40.3,250.3h-.3c0-.1,0,0,0,0h.3ZM39.9,250.1h0c0-.1,0,0,0,0h0ZM30.1,247.4v-.3c0,0-.1-.2-.1-.2v.5ZM31.1,246.2h0s0,0,0,0h-.1ZM29.4,246l-.5-.6.4.4v.2c0,0,0,0,0,0ZM28.4,245h0s.2,0,.2,0h-.1c0,0,0,0,0,0ZM28.5,244.3h0s0,0,0,0h0ZM28.4,244.2h0s.1,0,.1,0h-.1c0,0,0,0,0,0ZM44.7,248.9h-.7c0,0,.4.3.4.3l.3-.3h0ZM27.7,243.1l-.7,1.2.3.7h1.5c0,.1,1.4,2.1,1.4,2.1h2.1c0,0-.3-.5-.3-.5l-1.9-1.3-.4-1.1-1,.3-1-1.4h0ZM38.5,243.4h0c0-.1,0,0,0,0h0c0,0,0,0,0,0ZM35.4,236.6h0c0,0,0,0,0,0h0s0,0,0,0ZM37.2,237.2h.2c0-.1,0-.1,0-.1h-.1ZM38.5,236.8h.2c0,0,.6-.3.6-.3l-.7.3ZM40.8,236h.1c0-.1-.2,0-.2,0h0ZM41.1,235.9l.3-.2h-.3c0,.1,0,.2,0,.2ZM42,235.5h-.3c0,0,0,.1,0,.1h.3ZM42.4,235.4h0s0,0,0,0ZM84.9,226.1l-.2-.3-.4-.3.7.6ZM49.9,221.7l.6-.8-.3.3-.3.5h0ZM50.8,220.8l.3-.4h-.2c0,0-.2.4-.2.4ZM51.2,220.2l.4-.4-.3.2-.2.3h0ZM72.5,221.6l.3.3h.1s-.5-.3-.5-.3h0ZM61.8,216l-2.1,1.9-.8.4-1.6-.2v-.4c0,0-1.7.8-1.7.8v1.4c.1,0-.3,0-.3,0l.5-1.1-2.5,1.1-.8-.5-2.3,2.1-.9,2-1.9,1.2h-1.5s-1.7-.5-1.7-.5l-1.6,2.2,1.4,1.6,1.9,2.8v2.3c.1,0,3.6,1.3,3.6,1.3l-.6,1.4.6.9.6-.3,1.5.7-1.4.3-1.5-.8.6,1.4-1.2.7-3.8-1.6,1-1-.7-.8-2.9.5-4.3,1.5.3,1.6,2.1,1.4-1.2.2v1.4c.1,0,1.6,1.8,1.6,1.8l.7.5,1.4-.3,1.8.9.8.2v.6c0,0,.7-.8.7-.8l1.3-.4.3-.4.7.3.5-.5.5,1.4-.6.5-.6-.3-.4.6h.6s.2,2.4.2,2.4l-.4.9h-2.8s0,.2,0,.2l-1.5,1.2h-1.9c0,0-.1-1-.1-1h-.9s0,.7,0,.7h-.9s-.5,2.4-.5,2.4l-.4-.5-2.2,1.8.2.7h-.8c0,0,0,3.1,0,3.1l1.1.5-.5.3,1.1.8,2,.7-.6.8v-.8s-.9.1-.9.1l-.7-1.2-1.8,1.1.9.2-.4.6,1.8,3,1.7.2,1.2-.3.6-1.1.5.3v1.7c0,0,.2,1.4.2,1.4l-.9,1.4.3,1.6-1.2.3.9.6,3.3-1.4.9,1.2.7.2.6,1.8h.7c0,0-.1-1.4-.1-1.4l1.5,1,2.5-.7.8-1-1,1.7-1.1.9.2,1-.7.5-.5,2.1-1.6.8-1,1-2,1.2h-.7c0,0-1.9,1.4-1.9,1.4v1.7c0,0-2.2-1.3-2.2-1.3l-2.2.6-2.2,1.7-.9.4-.3.7h1.9c0-.1.3-1.2.3-1.2l.2.9,2-1.7h.6c0,0-.5.9-.5.9l2.2-.5.2.5,1.4-1h1.5c0,.1,2.7-1.9,2.7-1.9l2.5-.9,2.3-1.2,1-1.5,1.2-.7.4.3,1.9-1.4h.4c0,0,2.4-2.1,2.4-2.1l.2-1-1.2-.6.4-1.3,1.4-1.2,1.5-1.7-.3-.2,1.2-.4,2-2.5,1.9-1,1.4.3-.2.4.9.8-.9.2-.6-.6-2.3,1.2v1.3c.1,0-.9,1.5-.9,1.5l-.4,1.3.7,1h-.4s-.3,1.3-.3,1.3h1.3s3.4-2.3,3.4-2.3l.7-.7h1.9c0,0,.6-.5.6-.5l.6-1.5-1-.2.5-.5-.2-.8.4-.9,1,.8v-.5c.1,0,1.7.2,1.7.2l1.2,1.5h.6c0-.1.4.9.4.9l.9.5,1-.4-.3.6,1.9,1.3,2.6-.3,2.2.7.8-.8,1.1,1.7,2.2-.3.4,1h-.4c0,.1,1.3.8,1.3.8l2.9,2.1.7,1,1.1.8,1.2.5,1.1-.9-1.9-1.7,1.7.2.5,1.9.7-.2,1.2.4-1-3.4.3.2-.2-1.5.7,2.3.7,1.5,1.4,1.2.3-.3.7,1.5h1.5c0,0,0,1.2,0,1.2l-.6-.3v1.6c.1,0,.8.7.8.7l3,2.7v2.1s.4,1.3.4,1.3l.2-1.6,1.3-.7.8,1.2.4,3.6h.8c0,0,1.1-2.1,1.1-2.1l-.4-3-.2-.3-3.4-1.6h-.7c0,0-.8-1.1-.8-1.1l-.2-.8-2.4-3.8-1.9-2.8-1-.6-1.8-2-.3-1.1-.5-.4-2,1.5-.7,1.3-1.3.7-.3-1-2.2-2.1-.2-.6-1-.8-1.7-.3-.9-.4h-1.2c0-.1-.1-41.4-.1-41.4h-.7s-2.3-2-2.3-2l-.6-.2-3.3.5-.8-.8h-2.1c0-.1-1-.6-1-.6l-2.5-1.5h-2.8c0,.1-1.2-.1-1.2-.1l.4-.5h-1.2c0,0,.2-1.7.2-1.7l-2.1-.3h-1.2c0,.1,0-1.1,0-1.1l-.5-.3-1.6,1.6.8-1.4-1.1-1.8h0Z"/>
  <path class="st1" d="M446.2,88.6l-.5.2-.8,1.3,2.2-.7-.9-.9h0ZM440.5,74.6l-.8.2-2.4,2.7-8.9,2-6.1,1.4v7.3c-.1,0,.3.2.3.2l5.5-1.3,7.3-1.8v.2c0,0,3.3-1,3.3-1l.2,1.2.6,1.1,1.1.6.4.2h.7s.4,1.5.4,1.5h.5s.9-.7.9-.7l-.2-.6.9-.7.7-1,.6,2.1,1-.8.5-.8,1.4-.6,1.8-.9h.3s-.5-1.9-.5-1.9l-.7,1.2-1.4.9h-1.4c0,0-.9-.4-.9-.4l-.6-1.4h-.8c0,0-.3-1.3-.3-1.3l-1.5-1.4-1.5.2-.6-.2v-1.2c.1,0,.9-1.1.9-1.1l-.2-.5,1.3-1-.2-.8-.6.5-.6-.5-.5-1.7h0Z"/>
  <path class="st3" d="M293.1,44.9h-1.7c0,0-.6.3-.6.3l-.5-.3-.8-1h-.7s-2.6.4-2.6.4h-1.9s-.3-1.3-.3-1.3h-.7s-1.1.6-1.1.6l-1.4,1.2-1.1.4h-1c0,0-.9-.6-.9-.6l-.5-1-1.4-.3-.6-1.2h-.8c0-.1-1.1.3-1.1.3v.8c0,0-.5.2-.5.2l-1.2-2.3h-1.2s.4-1,.4-1l-1.7-.4-.7-.4h-1.9s-1.5.4-1.5.4l-.3.5-1.8.4-.9-1.2-2.5-.2-.6-.7-1.2.2-.7-.2-.9-.9v-1.1c0,0-.8-2.7-.8-2.7v-1.4c0,0-1.1-.6-1.1-.6l-1.3-.2v3.9c0,0,0,.3,0,.3h-4.7c0,0-9.8-.2-9.8-.2v.3s.9,3.3.9,3.3l-.4,1.3.2,1.2v2.7c-.1,0,.9,3.7.9,3.7l.5,1.5.4,2v2.4c-.1,0,0,1.1,0,1.1v1.8s.3,1.4.3,1.4v2.5s.2.5.2.5l.2,1.7.9,1.2.3,2.3v1.8s-.7,1.9-.7,1.9l-1.6,1.2v.5c0,0,1.2,2.1,1.2,2.1l.9.2.8,1v7.5c0,0,0,4.6,0,4.6l-.2,7.1h5.1c0,0,7.4,0,7.4,0h7.6c0,0,7.5-.3,7.5-.3l7.5-.3h5c0-.1-.1-3-.1-3l-.5-1.7-1-.9-.9-.5h-.9s-1.4-1.2-1.4-1.2l-.9-1.6-1.2-1-1.4-.3-1-1.1-1.4-.3-1.8-1.5.3-1.8-.3-1.6.4-.3-.2-1v-1.2c.1,0,.7-1.6.7-1.6l-.8-1.1-.9-.2v-1.4c0,0,.7-.6.7-.6l.6-1.6,2.5-1.2.5-.6v-6.2c-.1,0,.5-.2.5-.2l.6-1.1v-.3s2.2-1.6,2.2-1.6l2-2,3.4-4.2,1.6-1.3,1.7-1.1,3.1-1.2,3.5-2.2h0Z"/>
  <path class="st3" d="M190.3,32.8l-5.6-.6-4.7-.4-7.7-.9-4.5-.7-6.3-.8-6-.8-6.8-1.1-5.6-1.1-6.1-1-9.1-1.7-7.6-1.5-7.7-1.6-6.1-1.4-2.2,10.3,1,2v.7s.6,1.1.6,1.1v1.1c0,0-.5.4-.5.4l.6.9-.8.4.9.7.4.9,1.1.8.2.8,1.9,3.4v.9s1.7,1.7,1.7,1.7l.2.8h1.6s.2.5.2.5l-.5,1.1-.9,1.8-.6.7v.9s-.5,1.3-.5,1.3l.4.9v1c0,0-1,.4-1,.4l-.6.4.3,1-.7,1.2.7.4.7.9,1.7-.6,1.4-.9,1,1.3v1.9s0,1.2,0,1.2l1.1,2,.4,1.5-.6.7.4.9.5.6h1.2c0,.1.7,1.9.7,1.9l-.4.3.4.9v.8c-.1,0,.3.6.3.6h.8c0,.1,1.3-.6,1.3-.6l2.3.8.4-.7h.8c0,0,1,.3,1,.3h1.7c0,0,.5.5.5.5l.8-.2,1.3.4.2-.9.6-.7h1c0,0,.5,1.6.5,1.6l1,1.3.9-5.3,6,.9,8.1,1.3,6.5.9,8.1,1.1,6.6.8,5.6.6,5.8.7,5.5.5h.1c0,0,.8-10,.8-10l.7-7.3.8-8.8.6-5.3,1-11h0Z"/>
  <path class="st1" d="M238.3,35.4h-5.7c0-.1-4.6-.3-4.6-.3l-7.8-.2-6.1-.3-4.9-.3-4.4-.2-6.2-.5-8.2-.7-1,11-.6,5.3-.8,8.8-.7,7.3,3.8.4,8.6.7,5.2.4,6.8.4,3.4.2,7,.4,6.9.2h7c0,.1,7,.2,7,.2v-1.8s-.3-2.3-.3-2.3l-.9-1.2-.2-1.7-.2-.5v-2.5s-.3-1.4-.3-1.4v-1.8s-.1-1.1-.1-1.1v-2.4c.1,0-.3-2-.3-2l-.5-1.5-1-3.7v-2.7c.1,0,0-1.2,0-1.2l.4-1.3-.9-3.3v-.3s0,0,0,0Z"/>
  <path class="st3" d="M106.4,19.5l-6.7-1.5-1.6,6.5-.8,3.2-1.7,6.6-2,8.5-.5,2.5.5,1.3v.8c0,0-.5.7-.5.7l.3,1.2v1c0,0,.4.8.4.8l.5.3,1,1.1.2,1.2-.2.7-1.9,2.1-.9,1.9-1.1,1-.3,1.2-.9,1-.8.4-1.1,1.6-.9.7-.5,2,1.4.6.5,1-.7,1,.2.6-1.4,2.4-2.1,8.8-2.3,9.6,10.1,2.4,4.3.8,8.7,1.8,5.8,1.2,7.1,1.4,10.2,1.8.9-4.9,1-6.4,1.1-6.6,1.5-8.1-1-1.3-.5-1.5h-1c0,0-.6.7-.6.7l-.2.9-1.3-.4-.8.2-.5-.4h-1.7c0,0-1-.5-1-.5h-.8c0,0-.4.8-.4.8l-2.3-.8-1.3.7h-.8c0-.1-.4-.7-.4-.7v-.8c.1,0-.2-.9-.2-.9l.4-.3-.7-1.8h-1.2c0-.1-.5-.8-.5-.8l-.4-.9.6-.7-.4-1.5-1.1-2v-1.2s0-1.9,0-1.9l-1-1.3-1.4.9-1.7.6-.7-.9-.7-.4.7-1.2-.3-1,.6-.4.9-.4v-1c0,0-.3-.9-.3-.9l.5-1.3v-.9s.6-.7.6-.7l.9-1.8.5-1.1-.2-.5h-1.6s-.2-.9-.2-.9l-1.7-1.7v-.9s-2-3.4-2-3.4l-.2-.8-1.1-.8-.4-.9-.9-.7.8-.4-.6-.9.6-.4v-1.1c0,0-.7-1.1-.7-1.1v-.7s-.9-2-.9-2l2.2-10.3h0Z"/>
  <path class="st3" d="M60,13.7h-.5c0,0-1,1.1-1,1.1v.5c0,0,.7,1.1.7,1.1l-.3.5v1.3c.1,0,.6.6.6.6h.8c0,0,0-.8,0-.8l-.5-.6-.6.2.2-2-.5-.4.7-.6.3-.9h0ZM57.6,11.7l-.6-1.4h-.4c0,.1.1,1.4.1,1.4h.9s0,0,0,0ZM59.2,9.9h-.5c0,0-.9.5-.9.5l1.1.6.9-.4-.6-.7h0ZM60.8,7.1l-.5,1.1.5,1.5.7.2v2.1s-.5.4-.5.4l-.7,1.5.7.9-.2,2,.7,1.5-1.1.4-1,1.5v.7s-.5.8-.5.8l-.3,2.1v.8c0,0-1.1.9-1.1.9l-.5-.3-.5.6-1.4.9-.2-.8h-.9s-.3-.7-.3-.7l.7-.9.7-.3v1.4c0,0,1.1-.8,1.1-.8l.8-.2,1-1.7-.4-.9v-1.2c.1,0,1.5-.3,1.5-.3v-1.6s-.4-.2-.4-.2l-1.5,1.4-.5.6-1.5.4,1.3-1.7.7.2.7-.6v-.8c.1,0-.1-1.7-.1-1.7l.2-.6h-1.6c0,.1-.6-.7-.6-.7h-1.1c0,0-2.1-.8-2.1-.8l-.7-.6-2.3-.9-1-1.3-1.1-.6-.9-1.2-.8.2-1,1.4v.9s-.2,2-.2,2l.7,1.5.2.8-.2,2.2-.4,1.9.3,1.6-.5,2,1,.4v.5c0,0,.7.8.7.8h-1.3c0,.1-.6.9-.6.9l-.2.6,1.2.7-.8,2.9-1.5.5.7,1.3h1.8s.4.7.4.7h1c0,0,.8,1.7.8,1.7h.9s.6.2.6.2l1.1,1.2.3,1.6-.5,3.3.4.6.9.3,1.8,1.2,2.4-.2,1.5-.4,1.7.4,2,.8.8,1.1h.8c0,0,1,.3,1,.3l1.9-.2h.4c0-.1.9.4.9.4l1.8.2.9-.4,1.5-.2,2.1.3.6-.4,1.8.2,1.8.5.8-.4,7.8,2,7.6,1.8-.3-1.2.6-.7v-.8c0,0-.6-1.3-.6-1.3l.5-2.5,2-8.5,1.7-6.6.8-3.2,1.6-6.5-8.4-2.2-7.5-2-9-2.5-4.6-1.2-5.9-1.8-3.7-1.2h0Z"/>
  <path class="st3" d="M136.5,154.9l-6.6-1-5.2-.8-6.6-1.1-6.5-1.2-3.9-.6-7.7-1.6-5.2-1-1.7,8.2-1.1,1.6h-.9s-.8-1.3-.8-1.3h-.7s-.9-.6-.9-.6l-1.6.3-.5,1.1.5,1.3-.4.5v1c0,0,0,1,0,1l-.5,1.1.3,1.9-.2,1.6-.6.5-.3,1.4-.2,1.3.5,1.3.4.2.6,2.4v.8c-.1,0,1.6,1.9,1.6,1.9v.5c0,0-1.4.7-1.4.7l-1.3.5-.4.7-1.2.9v2c-.1,0-.9,2-.9,2l-1.2,1.1h-.8c0,0-.3,1.2-.3,1.2l.2,1.2-.5,1.1.5.6.7.2.5.6v1.2c-.1,0-.9.6-.9.6l-.3.5-1.2-.3-.5.2-1,1.2-.2.9,6.9,4.3,6.7,4.2,6.8,4.1,6.9,3.9,3.6,2.3h.5c0,0,9.5,1.6,9.5,1.6l8.2,1.3.6-3.9,1.1-7.5.8-5.7.8-5.5.9-5.6.7-5.6,1.1-7.5.8-5.5.9-5.6,1.1-7.5h0Z"/>
  <path class="st3" d="M46.6,179.6l.4,2.1.5.6.6-.2-.8-1.1-.7-1.5h0ZM48.3,175.3l.2.6v1c0,0,1.4.2,1.4.2l-.4-.8-1.2-1h0ZM36.9,166.1l-1.4-.3v1.1c0,0,.5.4.5.4l1-.3-.2-1h0ZM38.8,166.2l-.6.5.2.5,1.1.5.8-.4-1.5-1h0ZM85.4,167.3l-3.9-5.5-2.3-3.4-4-6.5-3.2-4.8-4.7-7.1-4.5-7.2-4.4-6.5-3-4.3-4.2-6.6,1.6-6.3,2.2-7.5,1-3.6,2.1-7.6,1.5-5.7-5.9-1.6-4-1-6-1.8-3.9-1.2-6-1.8-6-2-.6,1.6-.5.6.6.7v1.4c0,0-.2,1.8-.2,1.8l-1.2,2.5-.5.2v1.4c0,0-1.8,3-1.8,3l-.4-.2-2,2.2v1.4c0,0-.2.5-.2.5l1.4,2.2,1.2,3.5v1.6s-.4,1.6-.4,1.6l-.7.9-.4,1v3.6c0,0-.4.6-.4.6l.3,1.2,1,2.2,1,2.3.7.9.7,2.2-.2,1.3-1,1.4.8-.2.6.7.6,1.2h.5c0,0,.9,1.3.9,1.3l.8-.4-.4-.6.7-1.9.8-.2.8,1.1,1.3.5.7-.6.4.8-1.5.2-.5-.6-1.7.5.5,1.7-.4.5.5.6.5,1-.2.9-.5.6-.4-.8-.7-.6.3-2.3-1,.2v1.2c-.1,0-.9,1.3-.9,1.3l.5.4v1.6s-.5,1.7-.5,1.7l1.3,2.9.7.4h1c0,0,.5.7.5.7l.2,1.5-.5,1.1-.7.6-.5-.4-.5,1.5-.2,1.8.2.8.8.8.6,1.1.2,1.2.6.5v1.2c-.1,0,.6,1.3.6,1.3l.3,1.4.7.6.9,2.1.7.4.2.5-.7,1.5.7.9,1.1.8v.7s-.9,1.6-.9,1.6l.3.7-.4,1,.2.6-.8,1.1,1,.9v.8c0,0,3.1.6,3.1.6l1,.4.9.9,1.2.3h1c0,0,1.3.9,1.3.9l1.2,1.6v1.3c.1,0,2.4,1.6,2.4,1.6l1.2.7,2.1.3.6,1.1v1.3c.1,0-.3,1-.3,1l.8.5.6-.4,1.3.8.8,1.1,1.4,1.5,1.8,2.6,1.1,2.7v2.5s-.4.5-.4.5v1.4c0,0,.6.6.6.6v1.6s5.3.8,5.3.8l6.5.9,9.6,1.1.5-.2,1.2.3.3-.5.7-.6v-1.2c.1,0-.4-.6-.4-.6l-.7-.2-.5-.6.5-1.1-.2-1.2.3-1.1h.8c0,0,1.2-1.2,1.2-1.2l.8-2v-2c.1,0,1.3-.9,1.3-.9l.4-.7,1.3-.5,1.3-.7v-.5c0,0-1.6-1.9-1.6-1.9v-.8c.1,0-.4-2.4-.4-2.4l-.4-.2-.5-1.3.2-1.3h0Z"/>
  <path class="st3" d="M197.5,129.6l.8-10.6-4.3-.2-5.7-.4-6-.6-8.5-.8-5-.5-5-.5-5-.8-5-.5-5-.8-6.2-.9-1,6.6-.9,6.5-1.3,7.9-.9,6.5-1.4,9.2-.7,5.2,4.7.7,8,1.1,4.8.6,6.3.8,9.6,1.1,6.3.6,4.8.5,6.4.5,8,.7.4-5,.5-8,.4-7,.3-4.9.4-7h0Z"/>
  <path class="st3" d="M94.8,147.5l1-4.9,1.6-8.1,2-9.7,1.7-8.2,1.2-6.5,2-9.7,1-4.9-8.7-1.8-4.3-.8-10.1-2.4-7.1-1.8-5.7-1.5-5.8-1.5-4.2-1.2-1.5,5.7-2.1,7.6-1,3.6-2.2,7.5-1.6,6.3,4.2,6.6,3,4.3,4.4,6.5,4.5,7.2,4.7,7.1,3.2,4.8,4,6.5,2.3,3.4,3.9,5.5.3-1.4.6-.5.2-1.6-.3-1.9.5-1.1-.2-1v-1c0,0,.5-.5.5-.5l-.5-1.3.5-1.1,1.6-.3.9.5h.7s.8,1.4.8,1.4h.9s1.1-1.7,1.1-1.7l1.7-8.2h0Z"/>
  <path class="st3" d="M186.9,166.1l.4-5.4-6.4-.5-4.8-.5-6.3-.6-9.6-1.1-6.3-.8-4.8-.6-8-1.1-4.7-.7-1.1,7.5-.9,5.6-.8,5.5-1.1,7.5-.7,5.6-.9,5.6-.8,5.5-.8,5.7-1.1,7.5-.6,3.9h.7s6.9,1,6.9,1l.7-4.7,9.4,1.3,5.9.7-.6-.7-.5-1.9,6.5.7,9.9,1.1,8,.7,8,.7.9-10.2.8-10.4.8-8.8.5-5.9.7-8.9.3-3.3h.3s0,0,0,0Z"/>
  <path class="st3" d="M48.8,35.1l-.5.2-1-.4-.6-1.2-.9.4-1.9-.4-.6-.7v1.4c0,0-.3,1.1-.3,1.1l-.6.2v.9s-.6,1.1-.6,1.1l.2,1.2-.6.7-.5,1.1.2.5-.7.6v.5s-.5,1.5-.5,1.5l-1.4,2.5-.3.5-.7,2.2-3.1,7.2-.6,1.1-1.8,3.2-.4.7h-.7s-1.5,3-1.5,3l-1.2,1.6v1.2c-.1,0,.4,1,.4,1l-.3,1.1-.4.7-.6,1.6v1.2s-.3,1.1-.3,1.1l.7,1.5,6,2,6,1.8,3.9,1.2,6,1.8,4,1,5.9,1.6,4.2,1.2,5.8,1.5,5.7,1.5,7.1,1.8,2.3-9.6,2.1-8.8,1.4-2.4-.2-.6.7-1-.5-1-1.4-.6.5-2,.9-.7,1.1-1.6.8-.4.9-1,.3-1.2,1.1-1,.9-1.9,1.9-2.1.2-.7-.2-1.2-1-1.1-.5-.3-.4-.8v-1c0,0-7.5-1.8-7.5-1.8l-7.8-2-.8.4-1.8-.5-1.8-.2-.6.4-2.1-.3-1.5.2-.9.4-1.8-.2-.9-.5h-.4c0,.1-1.9.3-1.9.3l-1-.4h-.8c0,0-.8-1-.8-1l-2-.8-1.7-.4-1.5.4-2.4.2-1.8-1.2-.9-.3-.4-.6.5-3.3-.3-1.6-1.1-1.2-.6-.2h0Z"/>
  <path class="st3" d="M128.6,99.9l-10.2-1.8-7.1-1.4-5.8-1.2-1,4.9-2,9.7-1.2,6.5-1.7,8.2-2,9.7-1.6,8.1-1,4.9,5.2,1,7.7,1.6,3.9.6,6.5,1.2,6.6,1.1,5.2.8,6.6,1,.7-5.2,1.4-9.2.9-6.5,1.3-7.9.9-6.5,1-6.6-5-.8-7.9-1.2-2.8-.6,1.7-10.4h0Z"/>
  <path class="st3" d="M184.3,96.6l.8-9.2.7-8,.4-4-5.5-.5-5.8-.7-5.6-.6-6.6-.8-8.1-1.1-6.5-.9-8.1-1.3-6-.9-.9,5.3-1.5,8.1-1.1,6.6-1,6.4-.9,4.9-1.7,10.4,2.8.6,7.9,1.2,5,.8,6.2.9,5,.8,5,.5,5,.8,5,.5,5,.5,8.5.8.6-5.3.6-6.5.9-9.3h0Z"/>
  <path class="st3" d="M300.3,172.2l-5.6.5.3-.9,1-1.4.7-.3.5-.8v-.9s-.8-1.3-.8-1.3l-7.6.4-7.1.4-9.3.3-7,.2h-7s1,7.5,1,7.5l.6,4.4v4.6s-.1,9.2-.1,9.2v4.7c0,0,.9.9.9.9l.8-.4,1.8.2.4.2.2,5.9,8-.2,6.3-.3,4.9-.2,6.5-.3v-1.1c0,0,.5-.4.5-.4v-1.1c0,0-.8-.6-.8-.6l.4-.7v-1c0,0-.8-.7-.8-.7l.6-1.1-.4-.8,1.2-1.2-.3-.7.3-.5-.5-.6,1.5-.5.2-.6-.6-.5.7-.6.3-.9,1.9-1.5v-1.7c0,0,0-.6,0-.6l.3-1.1.8-.2v-.8c0,0,.9-.5.9-.5l.7-.6-.4-.8.6-.5.4-1,.6.2v-.8c.1,0-.2-.9-.2-.9v-1.2c.1,0,.7-.7.7-.7v-.7s.9-.4.9-.4l-.4-.6.3-.5-.4-.9,1.4-.6.5-.6-.4-.8h.8c0,0-.6-.9-.6-.9h0Z"/>
  <path id="IA" class="st3" d="M288.7,103.7v-.3s-.5-1.2-.5-1.2l-2.1-.3-.7-.4-.7-1.8-.5-2.6.6-1.4-.2-.6-.7-.2-.5-1.3h-5c0,.1-7.5.4-7.5.4l-7.5.3h-7.6c0,0-7.4,0-7.4,0h-5.1c0,0-1,0-1,0l.3,1.2-.2,1.6h.7s.2,1.2.2,1.2l-.5.8v.8c0,0-.5,1.3-.5,1.3l-.6,1.1,1,1.1.3,1.4.7.2v1.4c0,0,.4.8.4.8v1c0,0,.5.9.5.9l.2.6.8.8v1.3c.1,0,.6.6.6.6l-.2,1.6v1.1c0,0,1.3.9,1.3.9l-.2,1.3.6.2-.3,1.2.3.4v1.8s.2.3.2.3v2c0,0-.1.7-.1.7l.9.7v.7s6.7.2,6.7.2h3.7s3.7,0,3.7,0l3.6-.2h3.8c0-.1,9.3-.7,9.3-.7l1.7-.2.3.7,1.3.9.9.9h.4c0-.1-.2-2.3-.2-2.3l1.6-.7.4-.5v-1.5c.1,0,1.2-1.2,1.2-1.2v-1.4c0,0-.4-.7-.4-.7l-.8-.5v-.8c0,0,.1-1.3.1-1.3l.5-.6,2.3-.3.8-.8,1.2-.3.7-.6.2-1.6.8-.8.4-2.2-.4-.9-1.9-1.3-.5-1.3-1.6-1.1.2-.3h0Z"/>
  <path id="KS" class="st3" d="M258.3,163.2l-.2-9.5v-5.5s-.1-7.6-.1-7.6l-1.7-1-.7-1.6-1.6-1.6.5-1.5.7-.9h.5c0,0,.2-.9.2-.9l-1.1-.8-.6.4-.9-.5-1-.9h-8.5c0,0-5.1,0-5.1,0l-6.9-.2h-5.1c0,0-8.6-.4-8.6-.4l-10.1-.5-5.1-.3-5.4-.4-.4,7-.3,4.9-.4,7-.5,8-.4,5,6.1.3,7.8.4,7.8.4h4c0,.1,7.8.4,7.8.4l7.8.2h9.8c0,.1,5.8.1,5.8.1h6c0,0,0,0,0,0Z"/>
  <path id="MO" class="st3" d="M283.5,126.6l-.9-.9-1.3-.9-.3-.7-1.7.2-9.3.5h-3.8c0,.1-3.6.3-3.6.3h-3.7s-3.7,0-3.7,0l-6.8-.2.6.9.5,1.9,1.8,2.4v.7s.8.5.8.5l1,.9.9.5.6-.4,1.1.8-.2.9h-.5c0,0-.7.8-.7.8l-.5,1.5,1.6,1.6.7,1.6,1.7,1v7.6c0,0,.1,5.5.1,5.5l.2,9.5v5.3s7,0,7,0l7-.2,9.3-.3,7.1-.4,7.6-.4.8,1.3v.9s-.4.8-.4.8l-.7.3-1,1.4-.3.9,5.6-.5.5-1.1.4-.5-.8-1,1-.2-.3-.7.7-.6-.3-1.2h.5s.5,0,.5,0l.5-1.5.9.5.4-.3.5-1.5-.2-1.2.2-1.3h-.5c0,0-.7-.7-.7-.7l-.6.4-1.8-2.6.4-1v-.8c.1,0-.6-1.3-.6-1.3l-.4-1.5-.7-.2-.8-1.1-1-.4-.7-.6-.7-.2-.9-.3-2-2-.5-1,1-2.6.4-1v-1.1c0,0,.5-.9.5-.9l-.5-.6-2.1-.7-1.2.9-.7-.4-.3-.7-.4-2.1-.8-1.3-1.9-1.3-.6-.9-2.2-1.8-.9-1.6v-.9s-.3-.7-.3-.7l-.3-1.6v-1.5c.1,0,.6-.8.6-.8h0Z"/>
  <path id="NE" class="st3" d="M242.9,104.7l-.9-.2-.7-.9v-.5s-.9-.1-.9-.1l-.4-.6-2.1-.7-1.4-1-1.5.2h-1.2s-1.5-.1-1.5-.1l-.7.9h-.5s-1.9-1-1.9-1l-1.8-1.4-8.7-.2-6.6-.4-7.8-.4-5.4-.4-6.6-.4-8-.7-.9,9.3-.6,6.5-.6,5.3,6,.6,5.7.4,4.3.2-.8,10.6,5.4.4,5.1.3,10.1.5,8.6.3h5.1c0,0,6.9.3,6.9.3h5.1c0,0,8.5,0,8.5,0l-.8-.5v-.7s-1.7-2.4-1.7-2.4l-.5-1.9-.6-.9v-.7s-.8-.7-.8-.7l.2-.7v-2c0,0-.3-.3-.3-.3v-1.8s-.4-.4-.4-.4l.3-1.2-.6-.2.2-1.3-1.3-.9v-1.1c0,0,.1-1.6.1-1.6l-.5-.6v-1.3c-.1,0-.9-.8-.9-.8l-.2-.6-.6-.9v-1c0,0-.4-.8-.4-.8v-1.4c0,0-.7-.2-.7-.2h0Z"/>
  <path id="OK" class="st3" d="M258.3,168.5v-5.3s-6,0-6,0h-5.8s-9.8-.1-9.8-.1l-7.8-.2-7.8-.2h-4c0-.1-7.8-.6-7.8-.6l-7.8-.4-6.1-.3-8-.7-.4,5.4,10.2.7,9,.6,6.3.3-.2,4.3-.4,7.2-.4,9.1h1c0,0,1.7,2.1,1.7,2.1l1.2-.2,1.3.4v-.8c.1,0,1.2.6,1.2.6l.6.9v1c0,0,1.5.4,1.5.4h.5s.7.3.7.3l1.3.4h1.3c0-.1.7.8.7.8h.8c0,0,.6-.8.6-.8l1.2.3,1-.2v1.2s1.3.5,1.3.5v.8c-.1,0,.6.4.6.4l.7-.3,1.1-1h.8c0,.1.2.9.2.9h.8c0,.1.2.7.2.7h.7s1.5-.7,1.5-.7l.3.4-.3.9.4.6h.5s.2-.8.2-.8l1.4-1.5.6.9,1.4.3.4-.7.6.7.7.6h.7s.7,1,.7,1l.4-.7h.9s.4-.7.4-.7l1-.2,1-.5.7.4h.8c0,0,1.6-1,1.6-1l.5.6,1.6.2.8-.4.4-.7,1.6.9.6.2,1,1.1,1.1.3,1.9.9h.3s0-4.7,0-4.7l.2-9.2v-4.6s-.7-4.4-.7-4.4l-1-7.4h0Z"/>
  <path class="st1" d="M242.8,68.2h-7c0-.1-7-.2-7-.2l-6.9-.2-7-.4-3.4-.2-6.8-.4-5.2-.4-8.6-.7-3.8-.4-.8,10.1h-.1c0,0-.4,3.9-.4,3.9l-.7,8-.8,9.2,8,.7,6.6.4,5.4.4,7.8.4,6.6.4,8.7.2,1.8,1.4,1.9,1.1h.5s.7-.9.7-.9h1.5c0,.1,1.2.1,1.2.1l1.5-.2,1.4,1,2.1.7.4.6h.8c0,.1,0,.7,0,.7l.7.9.9.2-.3-1.4-1-1.1.6-1.1.5-1.3v-.8c0,0,.4-.8.4-.8l-.2-1.2h-.7s.2-1.7.2-1.7l-.3-1.2h1c0,0,.2-7,.2-7v-4.6s0-7.5,0-7.5l-.8-1-.9-.2-1.3-2.1v-.5c0,0,1.7-1.2,1.7-1.2l.7-1.9h0Z"/>
  <path id="LA" class="st3" d="M285.5,242.5l.7-1-2-.6-.9.4v.5s1.7.8,1.7.8h.4c0-.1,0-.1,0-.1ZM306.2,233.9l-.5-.3-.6-.9-.5-1.7-1.2-1-.6-1.2.8-3v-.5s-9,.5-9,.5l-8.7.5.7-.6-.5-1,.2-.6-.3-.7.8-.2.4-1.3-.4-.9.8-.8.2-1.8.5-1.3.7-.3.8-1.1.6-.4.2-.7,1.2-2.8-1.6-1.1v-1.1c0,0-.7-.7-.7-.7v-.5s.5-.7.5-.7l-.5-.3.2-.9.4-.7-.8-1-6.5.3-4.9.2-6.3.3-8,.2.2,10.8,1.3,1.1.9,1.9v1.4c0,0,1.5,2.1,1.5,2.1l-.2.6,1.5,3-.6.4.5.6-.4,1.3-1,2.4-.4.3.3,1.2-.4.7.3,1v2.3c0,0-.7,1-.7,1l.3.4-.3,1.1-.9.6.5,1,.9-.4,2.7-.4h2.3c0,0,1.6.3,1.6.3l3.3,1.3,1.3.2,2.6.4,1.3-.7.2-.4-.4-.8.2-.6,1.2-.6.2-.3h1.3c0-.1-.3.7-.3.7h1.8s.6.1.6.1l-.2.9h.8c0,0,.3,1.2.3,1.2l2.1.3.4-.3.6,1.2-.9,1.3.9.5,1.5.5,1.3.2,1-.2,1.3.5,1.1-2h1.6c0-.1,1.3.3,1.3.3l-.2.9.6.9,1.3-1-.2-1.2.5-.9-.6-1.7,1.1.6.6-.2,1.3.9.2.5,1.3.5.2.3h1.2c0,.1,1.1,1.6,1.1,1.6l.7.4h1.2c0,.1,1.4-1.2,1.4-1.2l-1-1.1-.8-1h-1.3c0,.1-.9-.4-.9-.4h-.8c0,0-.2-.7-.2-.7l-1.2-.3-.6-.9.7-.3,1.6-2.4.5.4.7-1-1-.4v-1.4c0,0-1.4.8-1.4.8l-.3,1.2h-.5s-1.5-1-1.5-1l.3-1.2-.9-.5-.4.7-.9.7-1.2.2-1.7-.4-.9-.7.2-.9,1.6-1.9h1.5c0,.1,1,1.2,1,1.2l1.8.2.5.6,1.7-.2h0Z"/>
  <path id="TX" class="st3" d="M234.8,263h-.3s-1.5,3.2-1.5,3.2h.5s1.3-3.2,1.3-3.2h0ZM236.3,260.7l1.8-2.2-.5-.3-.5,1.3-.7,1.2h0ZM242.3,255.7h-1c0,0-1.9,1.3-1.9,1.3l-1,.2.3.7.7-.6,2.8-1.6h0ZM257.3,244.7l-1.2,1.4,1.9-1.2-.7-.2ZM259.8,198.8h-.3s-1.9-.9-1.9-.9l-1.1-.3-1-1.1-.6-.2-1.6-.9-.4.7-.8.4-1.6-.2-.5-.6-1.6.9h-.8c0,0-.7-.3-.7-.3l-1,.5-1,.2-.4.7h-.9s-.4.7-.4.7l-.7-.9h-.7s-.7-.6-.7-.6l-.6-.7-.4.7-1.4-.3-.6-.9-1.4,1.5-.2.7h-.5s-.4-.5-.4-.5l.3-.9-.3-.4-1.5.7h-.7s-.2-.7-.2-.7h-.8c0-.1-.2-.9-.2-.9h-.8c0-.1-1.1.9-1.1.9l-.7.3-.7-.4v-.8c.1,0-1.2-.5-1.2-.5v-1.2s-1,.2-1,.2l-1.2-.3-.6.7h-.8c0,0-.7-.8-.7-.8h-1.3c0,.1-1.3-.3-1.3-.3l-.7-.4h-.5s-1.6-.3-1.6-.3v-1c0,0-.5-.9-.5-.9l-1.1-.6v.8c-.1,0-1.5-.4-1.5-.4l-1.2.2-1.7-2h-1c0,0,.4-9.1.4-9.1l.4-7.2.2-4.3-6.3-.3-9-.6-10.2-.7h-.3s-.3,3.3-.3,3.3l-.7,8.9-.5,5.9-.8,8.8-.8,10.4-.9,10.2-8-.7-8-.7-9.9-1.1-6.5-.7.5,1.9.6.7,1.2.7.5,1.5.9,1.6,1.5.7,1,1.3.8,1.3,1.4,1.3.3.7,1.6,1.8,1.2.7,1.1,1.2.8.5.9,1.4.2,1.2.8,2,.4.8-.3,1.8.2,1,.8,1.7.3,1.4.7.9.9.7h.8c0,.1,1.7,2.3,1.7,2.3l1.1.6,1.3.2v.5s1,.7,1,.7l1.2.3.6.9.9.7h.7s1.5.5,1.5.5l.4-.7,1.2-1.2.9-.4.2-1.3,1.2-2.7,1-1.5,1.6-.3.9.2.5-.8.7-.3,1.7,1h1.2s3.2.6,3.2.6h.8c0,0,1.3.3,1.3.3l.4.9.5.4h.7s.8,1.4.8,1.4l.9.7.2.8,1.8,1.4.4,1.1.7.6.4,2.1,1,1.3v1.1c0,0,1,1.2,1,1.2l.9,3.3.7.9,1.2.7.6,1.4,1.2,1.4v1.1c0,0,.6.3.6.3l.9,1.2,1.1.3.8.8v.8c-.1,0,.3.8.3.8l-.4,1,.6,1.4-.4,1.6.9.5v.8c0,0,.9.7.9.7l.4.6v.9s.8.8.8.8l-.4,1.3.5.4.3,1.2h1.2c0,.1.7.5.7.5h.9s.6.8.6.8l.9.7.6-.2,2,.8.7.9.8.5h2.7c0,.1,1.4.2,1.4.2l1.1.3,2.6,2,1.7-1.1h1.1c0,0,0-1,0-1l-.9.7v-.9s-.7-.6-.7-.6v-.8c.1,0-.4-1-.4-1v-.7s-.9-.7-.9-.7l.3-1.2-.6-2.6-.6-.5v-2c.1,0,.7-.2.7-.2l-.2-1,.5-.2.2-1.5-.8.4h-1.2c0-.1,0-.8,0-.8l1-.5,1.1.3,1.6-3.7-.9-.7-.3-1h-1c0,0-.2-.5-.2-.5h2.5s.8.5.8.5l1.6-2.1-.9-.3-.2.6-.9-.7.6-.7h2.7c0,0,.9-1.1.9-1.1v-.9s-.5-1-.5-1l.6-.2,1,1.3,2.5-1.2-1-1.3-.7-.4.2-.7,1.1.3.5-.6.4.6.9-.6.4,1.1,3.7-1.6h1.2s.9-.4.9-.4l1.7-1.1h.4c0-.1,2.1-1.9,2.1-1.9v-1.1c0,0,.8-.6.8-.6l1.6-1.9-.5-.4-.8-1.3v-1.9s1.4.6,1.4.6l.5-1.1.6-.2.6.9-.6,2,1.4-.3-.4,1,5.5-2.5h1.8s-.6-1.1-.6-1.1l.2-.9.5-1.3h.5s.7-1,.7-1v-2.3c0,0-.4-1-.4-1l.4-.7-.3-1.2.4-.3,1-2.4.4-1.3-.5-.6.6-.4-1.5-3,.2-.6-1.6-2.1v-1.4c0,0-.8-1.9-.8-1.9l-1.3-1.1-.2-10.8-.2-5.9-.4-.2-1.8-.2-.8.4-.9-.9h0Z"/>
  <path id="CT" class="st3" d="M435.4,85.6v-.2c0,0-7.4,1.8-7.4,1.8l-5.5,1.3,1.4,8,.7.6-1.7,1.7.9.9.6-.4,2.7-2.3,2.8-1.8h.8c0,0,.4-.6.4-.6h.8c0,.1.6-.3.6-.3l1-.3.7-.6h.7s1.6-.8,1.6-.8l.4.2v-1.2c.1,0-.2-1-.2-1l-1.4-5h0Z"/>
  <path id="NH" class="st3" d="M440.3,72.4l-.9-.7v-.8c0,0-1.7-1.2-1.7-1.2l-.4-1.8-1.2-3.5-2.5-7.6-2.2-6.6-.2.7h-1.2c0-.1-.6.6-.6.6l-.2,2.5.3,1.2-.5,1.8,1,1.3-.5,1.8-1,1.2-1,.5-.2.7.4,1.5-.4,2.9v1.1c0,0-.4.8-.4.8l.2,1-.3,1.2.6,2.3v.5c0,0,.2,3,.2,3l-.2,1.3,1,1.3,8.9-2,2.4-2.7.8-.2v-1.5c.1,0-.2-.7-.2-.7h0Z"/>
  <path class="st1" d="M442,89.2l-.4-1.5h-.7s.5,1.8.5,1.8l.6-.4h0ZM440.5,87.5l-1.1-.6-.6-1.1-.2-1.2-3.2,1,1.4,5,.3,1v1.2c-.1,0,1.7-1.1,1.7-1.1l.8-.2v-1.2c.1,0-.3-1.1-.3-1.1l.2-1.8h1Z"/>
  <path class="st1" d="M428.4,79.5l-1-1.3.2-1.3-.2-3v-.5c0,0-.5-2.3-.5-2.3l.3-1.2-.2-1,.5-.8v-1.1c0,0,.4-2.9.4-2.9l-.4-1.5.2-.7,1-.5,1-1.2.5-1.8-1-1.3.5-1.8-.3-1.2-5.8,1.6-7.6,2,.2,1.7.5.4v1.6s.4.8.4.8l.7.9v1.2s.3,1.2.3,1.2l-.2.4v1.7c0,0,.2.4.2.4l.9,2.7v1.2c-.1,0,.9,0,.9,0l.5.6,1.9,8.3,6.1-1.4h0Z"/>
  <path id="AL" class="st3" d="M336.7,179.8l-9.7,1-6.8.5-5.8.4v.2c0,0,.9,1,.9,1l-.2,6.6v5.3s-.2,5.9-.2,5.9l-.2,5.9-.3,8.6.9,7,1.2,9,.3-.2,2.4.5v-1.2s.3-2.1.3-2.1l1-.2.4,1.1-.2.7.4.6,1.3,1.1v.8c-.1,0,1.8-.5,1.8-.5v-.5c0,0,.9-.6.9-.6l.7-.9-.2-.5-.3-.7.3-1.1-1-.7-1.3-1.4.3-1.4,9.1-.8,5.9-.7,8.6-.9-.2-1-.9-.9-.2-1,.2-2.9-.2-.8-.6-.9-.5-1.3.6-2v-1.4c0,0,.1-.6.1-.6l1-.8-.7-.6-.2-1.2-.4-.9-.8-1-.7-1.6-.3-.4-.5-1.3-2.3-8-1.6-5.8-1.4-4.9-.7-2.5h0Z"/>
  <path id="FL" class="st3" d="M391.2,241.4l-.6-.2-.5.6.2,1.7.6-.7.3-1.4h0ZM332.8,229.2l-2.4.6-.2.3,2.6-.8ZM379.3,220.1h-1.9s-2-.5-2-.5h-.5s-.5,1-.5,1v.9s.5.6.5.6v2.3c0,0-1.1.3-1.1.3l-.5-.4-.5-1.5-7.1.5-5.2.4-5.8.4-6.1.2-.5-.3-.5-1.3-.6-1.1-8.6.9-5.9.7-9.1.8-.3,1.4,1.3,1.4,1,.7-.3,1.1.3.7.6.2-.5,1.1.9.3,1.4-1.8v-1.1c0,0,.8.9.8.9l.4-.3.9.7-.9.7,3.3-.6,1.7-.8h.8c0,.1,1-.4,1-.4l1.4.3-.8.4-1.2.6,2.8.6,2,.8,1.2.7-.4-1.1.6-.2.5,1.3,3.2,2.2.6.9.2,1.2,1.5-.5,2.3-.3,1.3-.8.6-.7,1.3-1,1.5.2v-.5s-1.1,0-1.1,0l.6-.7,1-.8h1.1c0,0,1.1-.5,1.1-.5l1.7,1h.5s1.2.6,1.2.6l.9.9.8,1.1,1.2.3.2,1.5,1.9.9.6,1.1.7.2.7.9,1.7-.2.7.6.3,1.2.8.8h.5c0,0,.2,1.8.2,1.8l.2,3.1-.8,2.9.4.9-.4,3.1h.5c0,0,1.3,1.2,1.3,1.2h.4c0-.1.3-1.5.3-1.5l-.2-.5-1.1-.5.2-.9.9.3,1.2.7.5-.2.6,1.2-1.2,1.8v1.2c-.1,0-.9.4-.9.4l.2.8.8.5.2,1.2,2.4,3.3.7.9,1.2.3.4-1.6.9.7v2c0,0,.8,1.6.8,1.6l1.2.7h.8c0,0,.2,1.1.2,1.1l.2.5.6,2.1,1.5,1-.2.6h1.3c0-.1,1.7.3,1.7.3l.9.7,1.5,2.6.8,1.3.7.4h1.2c0,.1.6.6.6.6l-.2.6-1.3-.4-.7-.6v1.2c-.1,0,.9.9.9.9l1.7-.5.5-.6,1.4.3,1.1-1.3h1.6s.1-.8.1-.8l.7-1-.5-1.3v-1.4c0,0,.5-1.3.5-1.3l.4-.3v-1.1c0,0,.4-.5.4-.5v-2c0,0-.2-2.3-.2-2.3l-.2-3,.2-.3-.6-2.4-.6-1.7-1-1.6h-.3s-2.2-3.6-2.2-3.6l-.7-1.6-4.6-7-1-2.3-.4-.6-.5-1.3,1.1.5v1.2s1.5-.2,1.5-.2l.4,1.1v1.4c0,0,0,1.9,0,1.9h.4c0-.1-.4-2.1-.4-2.1l.4-.7-.4-1.1-4.2-4.9-3.3-5-.9-2.1-2.2-5.1-.2-1-.7-1.3-.2-1.9-.6-.2h0Z"/>
  <path id="GA" class="st3" d="M380.3,212.5l.5-1.5h-.5s-.3,1.3-.3,1.3l.4.2h0ZM382.5,205.2l-1.2-.3h-.5s-.8-1-.8-1v-1.1c0,0-.5-.6-.5-.6l-.5-1.3-.5-.4-1.7-.8v-1.3c-.1,0-.6-1-.6-1l-.6-.7-.4-1.1-2.3-.9-.6-.7-.2-.8-1-.4v-1.1c0,0-1.2-.8-1.2-.8l-1.5-.5-.7-1.3-1.1-.8-2.1-1-.4-.9-1.4-1.2-.4-1.1-.6-.9-.4-.8h-1.4c0,0-1.1-.9-1.1-.9l-1.8-.9-.3-.4v-1.2c.1,0,1.3-1.4,1.3-1.4l.2-.7-5.8.9-4.5.6-4.8.6-6.4.7.7,2.5,1.4,4.9,1.6,5.8,2.3,8,.5,1.3.3.4.7,1.6.8,1,.4.9.2,1.2.7.6-1,.8-.2.6v1.4c0,0-.5,2-.5,2l.5,1.3.6.9.2.8-.2,2.9.2,1,.9.9.2,1,.6,1.1.5,1.3.5.3,6.1-.2,5.8-.4,5.2-.4,7.1-.5.5,1.5.5.4,1-.3v-2.3c0,0-.5-.6-.5-.6v-.9s.5-.9.5-.9h.5s2,.4,2,.4h1.9s-.5-1.5-.5-1.5v-1.2s.7-.6.7-.6l-.6-1.7.7.4.8-1.5-.7-.4-.5-1,.3-1.8.8-1.7,1.1-1-.3-1h.8c0,.1,1.1-1.5,1.1-1.5l-.5-.3h0Z"/>
  <path id="MS" class="st3" d="M314.4,181.9l-9.3.7-9.1.6.4.8-.7.6-1,.5v.8c0,0-.7.2-.7.2l-.3,1.1.2.6v1.7c0,0-2,1.5-2,1.5l-.3.9-.7.6.6.5-.2.6-1.5.5.5.6-.3.5.3.7-1.2,1.2.4.8-.6,1.1.9.7v1c0,0-.4.7-.4.7l.7.6v1.1c0,0-.5.4-.5.4v1.1c0,0,.9,1,.9,1l-.4.7-.2.9.5.3-.6.7v.5s.7.7.7.7v1.1c0,0,1.7,1.1,1.7,1.1l-1.2,2.8-.2.7-.6.4-.8,1.1-.7.3-.5,1.3-.2,1.8-.8.8.4.9-.4,1.3-.8.2.3.7-.2.6.5,1-.7.6,8.7-.5,8.9-.5v.5s-.8,3-.8,3l.6,1.2,1.2,1,.5,1.7.6.9.5.3h.8c0,0,.2-.8.2-.8l.6-.5,2.9-1.1.7-.6h.8c0,.1,1,.9,1,.9h1.6c0-.1.9,0,.9,0l.6-.7-1.2-9-.9-7,.3-8.6.2-5.9.2-5.9v-5.3s.2-6.6.2-6.6l-.8-1h0Z"/>
  <path id="SC" class="st3" d="M399.5,182.2l-6.8-4.7-4.4-3h-.3s-9.2,1.4-9.2,1.4l-.4-1.5-1.5-1.4-.7.6-.6-.9-6,.6-4.5.4-2.2.8-1.5,1.1h-.5s-2.6,1.2-2.6,1.2l-.2.7-1.2,1.4v1.2c-.1,0,.2.4.2.4l1.8.9,1.1.8h1.4c0,0,.4.9.4.9l.6.9.4,1.1,1.4,1.2.4.9,2.1,1,1.1.8.7,1.3,1.5.5,1.1.8v1.1c0,0,1.1.4,1.1.4l.2.8.6.7,2.3.9.4,1.1.6.7.5,1v1.3c.1,0,1.8.8,1.8.8l.5.4.5,1.3.4.6v1.1c0,0,.9,1,.9,1h.5s1.2.3,1.2.3v-.3s1.2-1.1,1.2-1.1l.5-.8-1.3-.9.2-.4,1.2.7.8-.2.8-1.1-.4-.8-.9-.3.2-.6,1.1.5h.8c0,0,1.4-1.4,1.4-1.4l1.2-.6.9-1v-.8c.1,0,1-.6,1-.6l1-1.4v-1.2c.1,0,.9.1.9.1l.9-.4,1.2-2.1.2-2.5,1.3-2.6,1.2-1.8,1.5-1.4h0Z"/>
  <path id="IL" class="st3" d="M310.9,102.3l-7,.6-8.3.4-6.9.4-.2.3,1.6,1.1.5,1.3,1.9,1.3.4.9-.4,2.2-.8.8-.2,1.6-.7.6-1.2.3-.8.8-2.3.3-.5.6-.2,1.3v.8c0,0,.9.5.9.5l.3.7v1.4c0,0-1,1.2-1,1.2v1.5c-.1,0-.6.5-.6.5l-1.6.7.2,2.2h-.4c0,.1-.5.9-.5.9v1.5c-.1,0,.2,1.6.2,1.6l.3.7v.9s.9,1.6.9,1.6l2.2,1.8.6.9,1.9,1.3.8,1.3.4,2.1.3.7.7.4,1.2-.9,2.1.7.5.6-.5.9v1.1c0,0-.3,1-.3,1l-1,2.6.5,1,2,2,.9.3.7.2.7.6,1,.4.8,1.1.7.2.4,1.5.7,1.3v.8c-.1,0-.5,1-.5,1l1.8,2.6.6-.4.7.6h.5c0,0-.5-.9-.5-.9l.9-1.6,1.2-.2,2.4,1,1.3.2.4-1-.7-.9v-.8c0,0,.2-.9.2-.9l1.3-.5,1.5-.4.3-.5-.8-1.1.8-1.3v-.5c0,0-.2-2.6-.2-2.6l.2-.6.7-.6-.6-.5.4-1,.8-.2.7-1.2v-.4c-.1,0,.7-.8.7-.8l-.2-.3.4-1,.4-.5.3-.9-.6-1.2v-.9s-.3-.4-.3-.4l-.9-1.6.5-.6-.2-1,.6-.7-.7-8.1-.6-6.1-.9-10.7-.5-.6-.7-1.6-.4-1.5-.7-.4-.7-1.6v-2.3c0,0,0,0,0,0Z"/>
  <path id="IN" class="st3" d="M335.2,108.2v-.5s-4.2.5-4.2.5l-7.4.9-4.6.4-1.3,1-2,.8-1.1-.3-.9-.7.9,10.7.6,6.1.7,8.1-.6.7.2,1-.5.6.9,1.6.3.4v.9s.6,1.2.6,1.2l-.3.9-.4.5-.4,1,.2.3-.8.8v.4c.1,0-.6,1.2-.6,1.2l-.8.2-.4,1,.6.5-.7.6-.2.6.3,2.6h.8c0,.1.3-.4.3-.4v-1c0,0,.9.5.9.5l1-.3.7.4.4-.7,1-.5,2.9,1.3.3-1.1,1.8-1.3.7.9,1.8-.4-.2-1,.8-1.1,1.1-.4v.8c0,0,.9.5.9.5l1.3.2.7-.3.3-.5v-1.6s.5-.9.5-.9l.4.2.9-.6.2-1.3.6-.5.9-1.3-.5-1.3v-.3s1.5-.2,1.5-.2l.7.4,1.4-.9,1.5-.4v-1.2c.1,0-.7-.1-.7-.1l.3-.9-.4-.6.3-.5-1-9.4-.9-7.7-.8-6.1-.5-4.3h0Z"/>
  <path id="KY" class="st3" d="M357.6,140.4l-1.2-1-1-.4-.8-1.7-1.2.6-.6,1.1-1.5.4-.6-.5-1.4-.3-.9.9h-.5c0,0-1.4-1.1-1.4-1.1l-.9-.2-1,.2-.9-.2-1.3-2.1-1.2-.7-1.5.4-.7-.6-.9.6-.3.5.4.6-.3.9h.8c0,.1-.1,1.3-.1,1.3l-1.5.4-1.4.9-.7-.4-1.5.2v.3s.5,1.3.5,1.3l-.9,1.3-.6.5-.2,1.3-.9.6-.4-.2-.5.9v1.6s-.3.5-.3.5l-.7.3-1.3-.2-.8-.5v-.8c0,0-1.2.4-1.2.4l-.8,1.1.2,1-1.8.4-.7-.9-1.8,1.3-.3,1.1-2.9-1.3-1,.5-.4.7-.7-.4-1,.3-.8-.5v1c0,0-.4.5-.4.5h-.8c0-.1,0,.4,0,.4l-.8,1.3.8,1.1-.3.5-1.5.4-1.3.5-.3.9v.8c0,0,.8.9.8.9l-.4,1-1.3-.2-2.4-1-1.2.2-.9,1.6.5,1-.2,1.3.2,1.2-.5,1.5-.4.3-.9-.5-.5,1.5,7.3-.6,4.5-.4-.3-1.9h1.6s.4.2.4.2l6.3-.6,5.2-.5,3.4-.2,5.5-.4,2.5-.3,4.3-.4,7.6-.6.6-.4,1.2-.9h.8c0,0,1.3-.9,1.3-.9l.9-.4.3-.9,1.6-.9v-.8c.1,0,1.1-.8,1.1-.8v-.8c.1,0,.6-.6.6-.6l2.1-1.6,2.9-3.3h-1.4c0,0-.7-.7-.7-.7l-.9-.5-.4-.6-.7-.6-.3-.7-.6-.5-1.5-2.1.3-1.1-.4-1.8h0Z"/>
  <path id="NC" class="st3" d="M416.2,149.9h-.2c0,0-.4.2-.4.2l.5.4.4-.7h-.2ZM415.4,150l-2.8.7-7.6,1.6-5.2,1.1-6.4,1.3-6.9,1.3-5,.8-5,.7-4.5.6-3.5.3-.3-.2-.4,1v1.2s-1.4,1.5-1.4,1.5l-.6,1.7-.4.5-1-.4-1.6.9-.7,1.2-.7.3-.6-.9-1.1.8-.2.7-.6-.2-.6,2h-.8c0,0-1.4,1-1.4,1l-1.9,1.9-1.9.3-1.3.7-.9,1-.2,1.3-.4.7h-1.3c0,.1-.3.7-.3.7v2.3c0,0,4.6-.6,4.6-.6l5.8-.9,2.6-1.2h.5s1.5-1.1,1.5-1.1l2.2-.8,4.5-.4,6-.6.6.9.7-.6,1.5,1.4.4,1.5,9.2-1.4h.3s4.4,3.1,4.4,3.1l6.8,4.7,2.7-.9h2c0,0,.4-.8.4-.8l.6-.2v-1.8s.1-.9.1-.9l1-2.1,1-1.2,1.2-.9.9-.9.4-.7,2.4-1.4,2.1-.2.7-.9h.5c0,0,1.2-1.7,1.2-1.7l-.5-.6h-1.6s-.8.4-.8.4l-.9.9-1.6-.4,1.5-.4,1.4-1.8-1-.4,1.3-.8-.2-.8h-1.7c0,0-2-.7-2-.7h1.6c0-.1.9,0,.9,0v-1.2s.8,1,.8,1l.5-.2,1.6.2,1-.2,1.7-2.9,1.1-.6v-.8c.1,0-.2-1.4-.2-1.4l-.8-1-.7-.4-.9,1.3.3,1.6-.7-.2-.4-.9v-1.4c0,0-1.2.1-1.2.1l-1.4.9h-.8c0-.1-.6.4-.6.4l-1.5.2v-1.2c.1,0,1.5,0,1.5,0l.9-.9,1.7-.6,1.2-1.2h1.4c0,0-1-2.4-1-2.4l-.9-.5-.4-.9h0Z"/>
  <path id="OH" class="st3" d="M370.7,114.4l-.9-5.5-1.4-8.6-3.7,2.1-2.3,1.6-2.2,2.6-1.5.5h-1.4c0,0-1.6.8-1.6.8l-.9.4-1.1.6-.9-.5h-1.6c0,.1-.6.6-.6.6l-.4-.6-1.2-1.2h-1.2c0-.1-.7-.7-.7-.7h-1.2s-6.6,1-6.6,1l-4,.5.5,4.3.8,6.1.9,7.7,1,9.4.9-.6.7.6,1.5-.4,1.2.7,1.3,2.1.9.2,1-.2.9.2,1.4,1h.5c0,0,.9-.8.9-.8l1.4.3.6.5,1.5-.4.6-1.1,1.2-.6.8,1.7,1,.4,1.2,1h.7s1.4-.6,1.4-.6l.2-1.6.6-.2-.3-1.9.8-2.3.4-.3,1.5.8.5-.2v-2.7c0,0,.3-1,.3-1l.8-.2v-.7s.5-.6.5-.6l.7.2,1.3-.7.7-.6.5-.9,1.2-1.2v-1.8s.5-1.5.5-1.5v-1.4c0,0,.3-2.1.3-2.1l.3-.9-.4-.8.2-.7-1-1.1,1.2-.9h0Z"/>
  <path id="TN" class="st3" d="M351.3,160.7l-.6.4-7.6.6-4.3.4-2.5.3-5.5.4-3.4.2-5.2.5-6.3.6-.4-.2h-1.6s.3,1.9.3,1.9l-4.5.4-7.3.6h-.5s-.5,0-.5,0l.3,1.2-.7.6.3.7-1,.2.8,1-.4.5-.5,1.1.6.9h-.8c0,0,.4.9.4.9l-.5.6-1.4.6.4.9-.3.5.4.6-.9.4v.7s-.6.7-.6.7v1.2c-.1,0,.2.9.2.9v.8c-.1,0-.7-.2-.7-.2l-.4,1-.6.5,9.1-.6,9.3-.7v-.2c0,0,5.8-.4,5.8-.4l6.8-.5,9.7-1,6.4-.7,4.8-.6v-2.3c0,0,.2-.5.2-.5h1.3c0-.1.4-.8.4-.8l.2-1.3.9-1,1.3-.7,1.9-.3,1.9-1.9,1.4-.9h.8c0,0,.6-2,.6-2l.6.2.2-.7,1.1-.8.6.9.7-.3.7-1.2,1.6-.9,1,.4.4-.5.6-1.7,1.4-1.5v-1.2s.4-1,.4-1l-2.1.2-.4.3-7.4,1-7,.9h0Z"/>
  <path id="VA" class="st3" d="M415.4,134.6v1.5c-.1,0-.9.6-.9.6l.2.6-.8,1.5.5.4-.5,2.7.2.6.7,1.3v-2.6c0,0,.5-1,.5-1l1.7-4.5.5-.6-.2-.8.2-.7-1.9.6v.3s0,0,0,0ZM395.4,124.1l-.3,2.1-4.6-2.4v1.4c0,0-.4.5-.4.5l.2,1.2-1.6,2.8-.6.2-.8,1.7-1-.4-.9,2.5-.2,1.3-.6,1.1-1.8-.2-.6-.9-.7-.2v1.7c0,0-.6.9-.6.9v.9s-.9,1.3-.9,1.3l-.4,1.9-1.4,2.4-.4,1.3.6.7-.5.6.2.6-1.3,1-.7-.2-1.5,1.1-.9-.2v.8c-.1,0-.6.6-.6.6l-1.5.5-.8.4-1.1-.8-1.5,1.6h-.8c0,0-1.3-.5-1.3-.5h-.3s-1.1-.8-1.1-.8l-.6-.9v-.8c.1,0-2.8,3.3-2.8,3.3l-2.1,1.6-.5.6v.8c-.1,0-1.1.8-1.1.8v.8c-.1,0-1.7.9-1.7.9l-.3.9-.9.4-1.3.8h-.8c0,0-1.2,1-1.2,1l7-.9,7.4-1,.4-.3,2.1-.2.3.2,3.5-.3,4.5-.6,5-.7,5-.8,6.9-1.3,6.4-1.3,5.2-1.1,7.6-1.6,2.8-.7h.1c0,0,.4,0,.4,0l-.3-1.6h.2c0,0,.7,1.4.7,1.4h.3s-1.6-2.5-1.6-2.5l-.4-1.1-1.2.2-1.3-.2-.2.9h-1.4c0,0-1-1-1-1h-.8c0-.1-.7-1-.7-1l-1.6-.9,2.3.3.2.8,1.5.5.4.6,1.1-.6v-.7s-.5-.6-.5-.6l-1.5-.5.6-.7-.5-1.3h.7s.6-.7.6-.7l-1.1-.6-.9-.9.6-.2v-1.2s.4-1,.4-1l-.2-.8-2.6-.8v-.5s-.9-.7-.9-.7l-2.2.2-.7-.2-.8-.8v-.8c0,0-1.9.9-1.9.9h-.3s-.6-1.2-.6-1.2l.4-2.2h.7s.1-.8.1-.8l.5-.2-.2-1.5-.3-.4-.6-.2-1-.4-.4-.6h-1.2s-.8-.5-.8-.5v-1.2s-.8-.5-.8-.5h-1.6s0,0,0,0Z"/>
  <path id="WI" class="st3" d="M313.9,72.2l-.6,1.1-.7.3-.3,1.1-.5.8-.3.9.4.8.5.3.5-.8.3-1.1.8-2v-1.3c-.1,0-.1,0-.1,0ZM288,60.2h-1.2c0-.1-1.3-.9-1.3-.9l-.3.5-.8.4.2-2.2.6-1.1-.6-.7-.8.2-1.2,1.1-.7-.2-1.3,1-2.9,1-1.2.2-1.1-.8-.6,1.1-.6.2v6.2c.1,0-.4.6-.4.6l-2.5,1.2-.6,1.6-.7.6v1.4c0,0,1,.2,1,.2l.8,1.1-.6,1.6v1.2c-.1,0,0,1,0,1l-.4.3.3,1.6-.3,1.8,1.8,1.5,1.4.3,1,1.1,1.4.3,1.2,1,.9,1.6,1.4,1.2h.9s.9.5.9.5l1,.9.5,1.7v2.9c.1,0,.6,1.3.6,1.3l.7.2.2.6-.6,1.4.5,2.6.7,1.8.7.4,2.1.3.6,1.2v.3s6.9-.4,6.9-.4l8.3-.4,7-.6-.2-1.7v-.5c0,0,0-1.2,0-1.2l-.5-.6v-.8c0,0-.7-.9-.7-.9l.2-.6-.4-1.8v-1.2c.1,0,.5-1,.5-1v-1.2s.6-1.4.6-1.4l-.3-1.2v-1.1c0,0,.4-1.8.4-1.8l.6-.7.4-.7-.5-1,.3-2.3.7-1.9.2-1.3-1-.7-1,.5-.4.5-.8,1.7-1,.8-.9.4.4-1.9.8-1.7.2-.6,1.3-.7v-1.2c.1,0-.9-.7-.9-.7v-.7s.4-1.2.4-1.2h-1.7c0,0,.5-1.2.5-1.2l-.2-2.2-.9-.7-1.3-.2-.4-1.5-.5-.3h-1.2c0-.1-1.6-.5-1.6-.5l-.7.3-1.4-.3-2.3-.9-7.5-1.6-.9-1.8-1.2-.3v-.4c-.1,0-.1,0-.1,0Z"/>
  <path class="st1" d="M380.7,122.8l-8.4,1.4-1.7-9.7-1.2.9,1,1.1-.2.7.4.8-.3.9-.3,2.1v1.4c0,0-.4,1.5-.4,1.5v1.8s-1.2,1.2-1.2,1.2l-.5.9-.7.6-1.3.7-.7-.2-.5.6v.7s-.9.2-.9.2l-.4,1v2.7c0,0-.4.2-.4.2l-1.5-.8-.4.3-.8,2.3.3,1.9-.6.2-.2,1.6-1.4.6h-.7s.4,1.8.4,1.8l-.3,1.1,1.5,2.1.6.5.3.7.7.6.4.6.9.5.7.6h1.4c0,0-.1.9-.1.9l.6.9,1.1.8h.3s1.3.6,1.3.6h.8c0,0,1.5-1.7,1.5-1.7l1.1.8.8-.4,1.5-.5.5-.6v-.8c.1,0,1.1.2,1.1.2l1.5-1.1.7.2,1.3-1-.2-.6.5-.6-.6-.7.4-1.3,1.4-2.4.4-1.9.9-1.3v-.9s.5-.9.5-.9v-1.7c0,0,.8.2.8.2l.6.9,1.8.2.6-1.1.2-1.3.9-2.5,1,.4.8-1.7.6-.2,1.6-2.8-.2-1.2.3-.5v-1.4c0,0,4.7,2.4,4.7,2.4l.3-2.1v-.8c0,0-.7-.7-.7-.7l-.5-.3-.5-1-.7.3-1.5-.8-.6.2-.5.8-1.1.4-.2.9-.8.2-1.4-.3-.4-.6-.6,1.4-.5.9-.9-.3-.7,1.2-2.2,2.3-.9-5.2h0Z"/>
  <path class="st3" d="M412.9,115.3h-1.6s-.8.8-.8.8l-.4.7.2.8,2,6.7,1.5,5.4,5-1h.2c0,0,0-.2,0-.2l-.4-.9-.5-.3.3-1.1-.4-1.1h-.8c0,0-1.5-.9-1.5-.9v-.5s-.9-.7-.9-.7l-.5-1.7-.5-1-1.6-1.2v-.8c.1,0-.5-.7-.5-.7l1.1-2.2h0Z"/>
  <path class="st3" d="M402.2,128.4l.8-1.1-1.3-.8-.6.7.6.2.5.4v.5s0,0,0,0Z"/>
  <path class="st3" d="M410.1,116.7l-4.6,1-9.2,2-7.3,1.4-8.3,1.6.9,5.2,2.2-2.3.7-1.2.9.3.5-.9.6-1.4.4.6,1.4.3.8-.2.2-.9,1.1-.4.5-.8.6-.2,1.5.8.7-.3.5,1,.5.3.6.7v.8c0,0,1.7,0,1.7,0l.8.5v1.2s.8.5.8.5h1.2s.4.6.4.6l1,.4.6-.7,1.3.8-.8,1.1v1.1c0,0-.3,1-.3,1l-.5.2-.4,1.3.3,1h.5c0,0,1.2-1.1,1.2-1.1l.6,1.1.6.5,1.6.4,1.2-.2,1.5.7.9.5v-.9s-.7-.7-.7-.7l-.5-1v-.7s-1.2-1.2-1.2-1.2l-.6-2.1-.2-.5.4-1.6-.3-.7.6-.4-.9-1.9.3-.9-.5-.4,1.7-.8,1-1.4.4.8-.9,1-.5,1.8,1.3.2v1.1c0,0-.5.7-.5.7l.8.5-.3,1.1h-.8c0-.1,0,.9,0,.9h.9s.8.4.8.4l-.5,1.3v.8c0,0-.4.2-.4.2l1.1,1.2,1.9.7.9-.6.6.5-.6.7h1c0,0-.2,1.7-.2,1.7l2.1-.2v-.3s2-.6,2-.6l.3-1.1h.2c0,0,.2-1.3.2-1.3l.7-.3.2-.9-.3-.4.2-.9-5,1-1.5-5.4-2-6.7-.2-.8h0Z"/>
  <path class="st3" d="M415.4,112.3l-.6,1.6-1.3.7-.9.9-.3,1.4.3,1.9,1.7,1,.9.3,1.1.8.9-.4,1.3.4v2.4c-.1,0,.6-.3.6-.3l.8-1.3.3-1.8.5-.8.4-1.3.7-2.1.8-.8.4-1-.2-.5v-1.2c.1,0,0-1.9,0-1.9h.3s-.2-3.4-.2-3.4l-.6-.9h-1.4c0,0-.8-.4-.8-.4l.3-1.4.4-.5h.3s.5-.8.5-.8l.3-2.4-.2-.6-7-2.2-.9,1v1c0,0-.8,1.7-.8,1.7l-.7.9.8.8v1.2c-.1,0-.8.5-.8.5l.5,1.9h.8c0,0,.4,1,.4,1l3.3,2.2-.7.9-1.3,1.4h0Z"/>
  <path class="st1" d="M421.5,104.2h-.8c0,0-.2,1-.2,1l1-.2v-.9ZM434.4,95.4l-.8.2-1.6,2.1-1.3.5-2.6.6-.7.9-2.1.2-.2.4-1.5.7-.2.7-1,.5-.6,1.7.5.6,1.2-1.1,1,.4,1-.8,1.4-.6,1-.8,2.2-.7,1.6-1.2,1-.2,1.3-1,3.3-2.7-.3-.4-.9,1-.6-.5-.7.9-.8.2-.4,1h-1.1c0,0,.4-.6.4-.6l.7-.3v-.8c0,0,.3-.7.3-.7l.8-.4h0ZM406,60.2h-1.3c0,.1-1.6,1.5-1.6,1.5l-.9.9-2.6,3.6-.4,1,.2.5-1.7,2.4-.9.7-1,1.2.7.6.5-.2.6.2.3,1.4-.9.6,1.3,2.1v.9s-.3.5-.3.5l-1.2.3-1.7,1.8-.2.6-1.8,1.1-2.9.5-1.3.7h-.7s-1.1-.5-1.1-.5h-2.8s-.9.3-.9.3h-1.2s-2.2.8-2.2.8l-2.7,1.3.3,1.9h1.2s0,1.1,0,1.1l.7,1.3-.2.9-.7.6-.7,1.5-1.4,1.3-.7,1-1.9,1.9.5,2.9,6.7-1.3,6.3-1.2,7.3-1.4,4.2-.9,9.6-2.1,1.6.9.9.3.2.5.5,1.7.7.9.9.5h1.1c0,0,.6.6.6.6l7,2.2-.5-1.7h.3s.3,1.3.3,1.3v2.3c0,0,.9-.6.9-.6l.2-.7.7-1.2-.9-.9,1.7-1.7-.7-.6-1.4-8-.4-.2v-7.3c.1,0-1.8-8.3-1.8-8.3l-.5-.6h-1c0,0,.1-1.2.1-1.2l-.9-2.7-.3-.4v-1.7c0,0,.3-.4.3-.4l-.3-1.2v-1.2s-.7-.9-.7-.9l-.4-.8v-1.6s-.4-.4-.4-.4l-.2-1.7-4.7,1.2-5.1,1.3h0Z"/>
  <path class="st3" d="M414.8,98l-.6-.7h-1.1c0,0-.9-.5-.9-.5l-.7-.9-.5-1.7-.2-.5-.9-.3-1.6-.9-9.6,2.1-4.2.9-7.3,1.4-6.3,1.2-6.7,1.3-.5-2.9-.9.6-3.6,2.9-1,.5,1.4,8.6.9,5.5,1.7,9.7,8.4-1.4,8.3-1.6,7.3-1.4,9.2-2,4.6-1,.4-.7.8-.8h1.6s0-.5,0-.5l1.8-1.1v-.8c.1,0,.6-.6.6-.6l1.3-1.4.7-.9-3.3-2.2-.4-1.1h-.8c0,0-.5-1.8-.5-1.8l.6-.5v-1.2c.1,0-.6-.8-.6-.8l.7-.9.8-1.7v-1c0,0,1-1,1-1h0Z"/>
  <path class="st1" d="M455.4,54.3v-.5s-1-.5-1-.5l-.5.2v1.5c-.1,0,.2.4.2.4l1.3-1h0ZM453.6,38.7v-.7s-1.3-4.1-1.3-4.1l-2.7-8.2-1.7-1.3-2.1-.9h-.7s-.5.8-.5.8l-1,.3-.5.9-.8.2-.8.8-1.1-.3-.3-.4-.4-1.5h-1.2s-.4.3-.4.3l-2.9,9.1.4,3-.7.9-.2,1.8.4.6v.8c-.1,0,0,.8,0,.8l.6.7-.8,1.7.2.5-1.1,1.3-.4,1v1c0,0-.5,1.1-.5,1.1l.2.8-.5.8-.6-.9-.9.6,2.2,6.6,2.5,7.6,1.2,3.5.4,1.8,1.6,1.2v.8c0,0,.9.7.9.7l.7-.3.2-1.6v-1.2c.1,0,.9-.8.9-.8l-.2-1.5,1.1-.6-.7-1.5.7-1.2.7-1,1.3.9h.5s.5-1.9.5-1.9l.5-.6.9.3v-1.2s.4-.3.4-.3l1.1.6.4-.5.3-1.1v-.9s.1-1.8.1-1.8l.2-.7-.5-.6.9-.9,1,1.3.9.2.8-.2-.6-1.1,1.9-1.5,1.2-.2.4.9.6-.2.7-.6v-.8c.1,0-.3-.6-.3-.6l.4-.5h1c0,0,.7-.2.7-.2v-1.1c0,0,1.1.1,1.1.1l.4-.7h.8c0,0,1.2-2.4,1.2-2.4l-.8-1-1.7-2.2h-.5c0,0-.7.6-.7.6l-1.3-.9v-1.2s-.8-1-.8-1l.4-.5-.4-.8-1.5.5-1.6-.6v-.7s0,0,0,0Z"/>
  <path class="st3" d="M324.9,67.7l.2-.4v-1.3c-.1,0-.6.1-.6.1l-.4,1.6h.7s0,0,0,0ZM352,92l-.6-.9-.7-1.8-.4-1.8-.4-.8-.8-2.9-.6-1.1-1-.9-1-.4-1.1.8-1.2.6-.8,1.5-.6,1.6h-.5c0,0-.8,1.2-.8,1.2l-1.8-.5-.5-.4v-1.6c-.1,0,.2-.9.2-.9l.3-.5,1-.2.7-.6.3-2.3,1.1-.8.2-.9-.3-2.3v-.8c.1,0-.5-1.9-.5-1.9l-1-.9v-.8c.1,0,1-.4,1-.4l-.3-.7-.6-.7v-.5c0,0-.9-.7-.9-.7h-1.4c0,0-1.3-.6-1.3-.6l-.8-.5h-1.2s-1-1.3-1-1.3l-.7-.2-1.2.2-.9-.5-1.5-.5-1.3.7-.9,1.3v1.2s.8.8.8.8v.7s-1.1,0-1.1,0l-1,.8-.4,1,.3,1.4-.2,1.8-.9-.7-.2,1.8-.6-.2.3-1.1-.2-.8.2-.4-.2-.8-1.1,1-.5,1.3-.7-.4-.5.8h-.3s-.2,2-.2,2l-.8.2-.3.5.3,1,.2,2.2-1,2.4-.7.9.7,1.3.2,1.9-.4,1v.8c-.1,0,.2.9.2.9l2.2,4.4.6,1.4.3,2.6v2.6c0,0-.8,2.4-.8,2.4l-.8,1.3-.7,2.1-.8,1.3-1,.8,4.6-.4,7.4-.9,4.1-.5v.5s4-.5,4-.5l6.6-1,.2-.9.9-1.9.5-.2.2-2.5v-.5c0,0,.5-.8.5-.8l1.2-.9v-1.6c-.1,0,.1-.7.1-.7l.7-1,.7.4v1.1c0,0,.6-.2.6-.2l.5-.8v-1.4c0,0-.2-.5-.2-.5l.3-2.1h0ZM338.8,60.9l-.9-.2v.5s-.9,1-.9,1l.9.2h1.1c0,0,.6-.8.6-.8l-.8-.8ZM331.4,57.8l-.4.5-.8-.8-1.2.6-1.8-.5v-2c.1,0-.1-.5-.1-.5h-1.2s-2.1,1.3-2.1,1.3h-2.5s-1.7.6-1.7.6l-.4-.2-.9.9-1.6.9-.9,1.3-.9-.5-.9.6-.8-.8h-.8c0,0-1.1.5-1.1.5h-.9s-.4-.9-.4-.9l-.6-.2-1.1-1.5-.4-.6-1.2-.7h-2c0-.1-.8.1-.8.1l-.3-.4-1,1.2h-.8c0,0,.1-1.4.1-1.4l-.7-1.5-.7-.2-.4-.8-1.4,1.3-.5,1.1-1.2.2-.7.9-1.1.8-3,.6-1.4,1.5-2.9,1.3v.4c.1,0,1.3.3,1.3.3l.9,1.8,7.5,1.6,2.3.9,1.4.3.7-.3,1.6.4h1.2c0,.1.5.4.5.4l.4,1.5,1.3.2.9.7.2,2.2-.5,1.1h1.7c0,0-.3,1.3-.3,1.3v.7s.9.7.9.7l.3-.9,1.3-2.6.4-1.3.6-1.4.6-.4.2-1.3.5.3v.8c0,0,1-.4,1-.4l.7-1.5.5.3.7-.6.2,1-.5.2-.5,1.1.7.2.5-1.3,1.1-.6.8-1.7,1.2-.3,3-.4.8-1.3,1.5-.2,2.5.5,1.5,1.4h.8c0,.1-.2-.9-.2-.9l.3-1.2,1.6.2,3.2.2.9-.4-1.2-1v-.7s-1.9-.4-1.9-.4l.4-.5-.3-1h.9s-.5-1-.5-1l.2-.9-.6-.2-.9.6h-.9s-.4.7-.4.7h0ZM306.7,49.8l-.6-.5h-1.6c0,.1-1.1.5-1.1.5l-1.6,1-1,1.5v1c0,0,.6,0,.6,0l.9,1.6,1.1-2.2,2.3-2.5h.9s.2-.4.2-.4h0ZM300.7,42.3l-.9.4-1.5,1.1-1.9,1.2-.6.5.6.9,1.3-.7v-.5c0,0,1.9-.9,1.9-.9l.7-.6.5-1.3h0Z"/>
  <path class="st1" d="M131.8,253.7h-1.5c0,0-2.1,1.4-2.1,1.4l-.3.9,1.4,1.1,2,.5,1.5-2.9-.9-1h0ZM123.5,258.4l1.2-1.2-1.5.2.3,1ZM146.8,260.7l-1.2-1.1-1.1,1.2-1.1.5,1.4,2.7,1.1-1.1,1.8,1.5,1.2-.9-.3-1.3h-1.2c0-.1-.5-1.6-.5-1.6h0ZM153.3,264.8l-.4,1.4h2.2c0,0,2.1.4,2.1.4l1.5-.8v-.4c.1,0-2.6-.5-2.6-.5v.3c-.1,0-2.8-.4-2.8-.4h0ZM160.1,266.9l-.9.5.6,2h1.4c0,.1.4,1.8.4,1.8l1.4.6,1.8-.5,1.5-1.1-3.1-2.5-3.1-.8h0ZM156.8,270.1l1-.7-.9-1.3h-1c0-.1-.6.5-.6.5l.6.3.3,1.2h.5s0,0,0,0ZM160.7,272.3l-.8-.6-.7.9,1.5-.3ZM178.7,283.1l-1.7-1.7v-.5s-1.1-.2-1.1-.2v-1.5s-3.6-2.4-3.6-2.4l-1.5-.4-2.1-1.3-1.4.4.8,1.9-2.3,3.4.8,1.3.9,2.5.5,3.9,2,1.3,1.2-2,2.1-1.6,2.6-.7,2.2-1.5.6-1.1h0Z"/>
  <path class="st2" d="M327.7,257.9h-.5c0-.1-.4-.1-.4-.1h0c0,0,.7.7.7.7l.2.4v-.2c0,0,0-.1,0-.1v-.3c-.1,0,0,0,0,0h0c0,.1,0,.2,0,.2h.1s.2,0,.2,0h-.1c0-.1.2-.1.2-.1h0s-.2-.3-.2-.3l-.4-.2ZM322.2,256.9h-.1s-.1,0-.1,0h-.1c0,.1-.3.3-.3.3h-.6c0,0-.4-.4-.4-.4h-.2c0,.1-.3,0-.3,0l-.3-.4h-.1c0,0-.2.1-.2.1h-.1s0-.1,0-.1h0c0,0,0-.2,0-.2h0s-.1.1-.1.1h-.2c0,0-.3-.2-.3-.2l-.3-.2h-.5c0-.1-.2-.3-.2-.3h-.2s-.3.1-.3.1l-.7-.2h-.4c0,0-.1.1-.1.1h-.2c0,.1-.3,0-.3,0h-.2c0,0-.3-.1-.3-.1l-1.1-.4.2.2.2.2.3.2h.3s0,.2,0,.2h-.5c0,.1-.2.1-.2.1v-.2c0,0-.1-.2-.1-.2l-.3-.2v-.2c0,0,0,0,0,0v.2c-.1,0-.3,0-.3,0h-.1c0,0,0-.2,0-.2h-.1c0-.1-.2-.2-.2-.2h-.2c0,.1-.8-.2-.8-.2l-.7.2-1.3-.4-1.4.2-.6-.2h-1s-.3,0-.3,0l-.4-.2h-.4c0,0-.9,0-.9,0h-.6c0,.1-.2,0-.2,0l-.6-.2h-.2s-1.7.1-1.7.1l-1.7-.4-.6-.3h-.9c0,0-.8.1-.8.1l-.3.4v.4s.2.3.2.3v.4s-.5.3-.5.3h-.2c0,.1-.3.3-.3.3h-.4c0,.1-.5.3-.5.3h0c0,.1.1.4.1.4l.2.3.2.5h.3c0,0,.4.2.4.2v.3c.1,0,.4.8.4.8l.2.2v.2c.1,0,0,.2,0,.2h-.1c0,.1-.1.3-.1.3l-.2.6v.6s-.2.2-.2.2v.3c0,0,.1.2.1.2h-.2c0,.1-.1.3-.1.3v.3s.2.1.2.1h.2s.2,0,.2,0h0c0,0,0,.2,0,.2h-.1c0,0-.1.1-.1.1h-.1c0,0-.4.2-.4.2v.5s0,.2,0,.2l.2.4h.2s-.1-.4-.1-.4h.2c0-.1.3,0,.3,0h.6c0,0,.2.1.2.1h.2s.3-.2.3-.2l.2-.2h.2c0,0,.4,0,.4,0h.4c0,0,.3.1.3.1l.4.4.2.2h.3s0-.1,0-.1h0c0-.1,0-.2,0-.2h0s.2,0,.2,0h.2s.5,0,.5,0h.3s.4-.1.4-.1l.3-.2.2-.2h-.2s0-.1,0-.1h.2c0-.1.2-.2.2-.2h.1c0,0,0,.3,0,.3h.7s.5.2.5.2h.1s.7,0,.7,0h.3s.1.2.1.2h.1s.1-.1.1-.1h.3c0,.1.2.1.2.1h.2c0-.1.2-.2.2-.2h.5s.2,0,.2,0h.2c0,0,.2-.1.2-.1h.3c0,0,.3.1.3.1l.3.3.3.3h.3s.5-.3.5-.3h.4c0,0,.3,0,.3,0h.1s.2.2.2.2h0c0,0,0,.2,0,.2h0c0,0,.2.1.2.1h.4c0,0,.2.1.2.1h.2s.3-.3.3-.3h.1c0,.1,0,.2,0,.2h0c0,0-.2.1-.2.1h0c0,0,0,.1,0,.1h0c0,.1.1,0,.1,0h.2s.2,0,.2,0h.2s1-.5,1-.5h.3c0,0,.5,0,.5,0h.1s.5-.2.5-.2h.2s.3,0,.3,0h.4c0,0,.4.1.4.1l.9-.3.6-.4.3-.3-.2-.5h0c0-.1.4-.2.4-.2h0s.2-.3.2-.3v-.4c0,0,.7-.9.7-.9l.3-.3h.3c0-.1.3-.2.3-.2h.3c0-.1.3-.2.3-.2h.3c0,.1.2.2.2.2h.2c0-.1-.2-.4-.2-.4v-.2c0,0,.2,0,.2,0l.2.3h.1s0-.2,0-.2h.2c0-.1-.2-.4-.2-.4h0c0-.1,0-.3,0-.3h-.2c0,.1-.1,0-.1,0h-.1c0-.1,0-.3,0-.3v-.2c0,0,0-.7,0-.7l.2-.8h0ZM327.3,261h-.8s-.6-.3-.6-.3h-.2s-1.3.1-1.3.1h-.2c0,0-.2.3-.2.3l-.3.2h-.3c0,.1-.3.1-.3.1h0s-.3,0-.3,0l.2.5h.5c0,0,.5,0,.5,0h.3c0,.1.3,0,.3,0l1.3-.3h.3c0-.1.2-.2.2-.2h.1c0,.1.1.1.1.1h0c0,0,.3-.3.3-.3h.1s.4,0,.4,0h.1c0,0-.2-.3-.2-.3h-.2Z"/>
  <path class="st2" d="M268.3,256.2h0c.5,0,.5.5.5.5q.5,0,1,.5s.5,0,.5.5h0c.5.5-.5.5.5.5,0,0,1,0,1,.5h1l-.5.5v1q0,.5-.5.5v1h-1c-.5,0-.5.5-1,.5v.5c-.5.5-1,0-1,.5s0,.5-.5.5l-.5.5h-1s-.5.5-.5,1q-.5,0-.5.5s-.5-.5-1,0v.5c0,.5-.5.5-.5.5v1.5c0,.5,0,1-.5,1l.5.5v1.5h-.5q-.5.5-1,.5t-.5.5c0,.5-.5.5-.5.5h-1c-.5,0-.5-.5-1-.5l-.5-.5v-.5c-.5-.5,0-.5-.5-.5v-1s0-.5-.5-.5c0-.5-.5-.5-.5-1,0,0,.5,0,.5-.5,0,0,0-.5.5-.5v-1h0l-1.5-1.5c0-.5.5-.5,1,0h.5c.5,0,.5-.5.5,0s0,0,0,0c1-.5.5-.5,0,0,0,0,1,0,.5-.5,0,0-.5,0-.5-.5h1.5c0,.5.5,0,.5,0h1c.5,0,1-.5,1-.5h1v-1c0-.5,1,0,1,0,.5,0,.5-.5.5-.5q0-.5.5-.5.5-.5.5-1c0-.5.5-.5.5-1v-1q.5-.5,1-.5v-1q0-.5-.5-.5"/>
  <path class="st2" d="M339.9,248.4l-1,1-1,.5v1l1.5.5h1.5l1,1h1l1-.5,2.4-.5,1.5-.5,1-.5-.5-1h-1.5l-3.4-1h-3.4ZM349.7,249.3v.5l.5.5h1.5l.5.5,1-.5v-.5h0l1-1,.5-.5-1-.5-1,.5-1.5-.5-.5.5v.5l-1,.5ZM346.3,263l1.5-.5,1.5.5,1.5-1h.5l.5,1,.5,1,1.5-1,.5.5,2.9-.5.5,1.9-1.5.5h-1.9l-3.9,1h-1.5l-2.4.5-1-.5-.5.5h-1.9s-1-.5,0-1c1-1,.5-2.4.5-2.4l2.9-.5Z"/>
  <path class="st2" d="M288.3,260.5l1-1,1-.5-1.9,1.5ZM288.3,265.4l1.9,1.9-.5-1.9h-1.5ZM292.7,270.8l1,2.9h0l1.5-2.9h-2.4ZM297.1,276.6v2.9l1.9,1,.5-2.9-2.4-1ZM305.3,284.4l-1.9,2.9.5,1.5,2.9,1.5,1-1.9v-2.9l-2.4-1Z"/>
  <path class="st2" d="M341.4,281.5h.5-.5ZM341.9,282h0v-.5h.5v.5h-.5ZM346.7,284.4c0-.5-.5-.5-1-.5h0v-.5q-.5,0-.5.5h-.5c-.5,0-1-.5-1-1h-.5s0-.5-.5-.5v-.5h0c0-.5.5-.5.5-.5.5,0,1,0,1-.5h1.5l.5.5h.5l.5.5h1.5q0,.5,0,0l.5.5h.5v.5h-.5,1l.5.5c.5,0,.5.5.5.5v.5h-4.4ZM335.5,280.5v-.5c-.5,0-.5-.5-1-1l-.5-.5h0s-1-1-1.5-1v-1s.5,0,.5.5h1.9l.5-.5h1.5q.5-.5,1-.5h1q.5.5.5,1l1,1h0l.5,1h0v.5s-.5,0-.5.5h0v1h-.5l-.5-.5h-1.5l-.5.5h-1.5l-.5-.5Z"/>
  <rect class="st3" x="452.7" y="87" width="21.9" height="14" rx="2.8" ry="2.8"/>
  <rect class="st1" x="428.8" y="116.2" width="21.9" height="14" rx="2.8" ry="2.8"/>
  <rect class="st1" x="452.7" y="130.8" width="21.9" height="14" rx="2.8" ry="2.8"/>
  <rect class="st3" x="428.8" y="130.8" width="21.9" height="14" rx="2.8" ry="2.8"/>
  <rect class="st3" x="428.8" y="145.4" width="21.9" height="14" rx="2.8" ry="2.8"/>
  <rect class="st3" x="452.7" y="145.4" width="21.9" height="14" rx="2.8" ry="2.8"/>
  <rect class="st3" x="429.3" y="159.6" width="21.9" height="14" rx="2.8" ry="2.8"/>
  <rect class="st1" x="452.7" y="101.6" width="21.9" height="14" rx="2.8" ry="2.8"/>
  <rect class="st3" x="452.7" y="116.2" width="21.9" height="14" rx="2.8" ry="2.8"/>
  <rect class="st1" x="150.5" y="273" width="15.5" height="14" rx="2.8" ry="2.8"/>
  <rect class="st0" x="9.7" y="4.9"/>
  <g class="st4">
    <text class="st5" transform="translate(455.9 97.6)"><tspan x="0" y="0">NH</tspan></text>
  </g>
  <g class="st4">
    <text class="st5" transform="translate(432.9 126.9)"><tspan x="0" y="0">VT</tspan></text>
  </g>
  <g class="st4">
    <text class="st5" transform="translate(458.3 141.5)"><tspan x="0" y="0">RI</tspan></text>
  </g>
  <g class="st4">
    <text class="st5" transform="translate(432.9 141.8)"><tspan x="0" y="0">NJ</tspan></text>
  </g>
  <g class="st4">
    <text class="st5" transform="translate(432.3 156.1)"><tspan x="0" y="0">DE</tspan></text>
  </g>
  <g class="st4">
    <text class="st5" transform="translate(455.3 156.1)"><tspan x="0" y="0">MD</tspan></text>
  </g>
  <g class="st4">
    <text class="st5" transform="translate(432.5 170.2)"><tspan x="0" y="0">DC</tspan></text>
  </g>
  <g class="st4">
    <text class="st5" transform="translate(455.3 112.3)"><tspan x="0" y="0">MA</tspan></text>
  </g>
  <g class="st4">
    <text class="st5" transform="translate(456.5 126.9)"><tspan x="0" y="0">CT</tspan></text>
  </g>
  <g class="st4">
    <text class="st5" transform="translate(152.9 283.7)"><tspan x="0" y="0">HI</tspan></text>
  </g>
  <g class="st4">
    <text class="st5" transform="translate(57 249.6)"><tspan x="0" y="0">AK</tspan></text>
  </g>
  <g class="st4">
    <text class="st5" transform="translate(379.6 256.9)"><tspan x="0" y="0">FL</tspan></text>
  </g>
  <g class="st4">
    <text class="st5" transform="translate(436.6 49.9)"><tspan x="0" y="0">ME</tspan></text>
  </g>
  <g class="st4">
    <text class="st5" transform="translate(399.2 85.5)"><tspan x="0" y="0">NY</tspan></text>
  </g>
  <g class="st4">
    <text class="st5" transform="translate(385.5 110.8)"><tspan x="0" y="0">PA</tspan></text>
  </g>
  <g class="st4">
    <text class="st5" transform="translate(387.4 145.9)"><tspan x="0" y="0">VA</tspan></text>
  </g>
  <g class="st4">
    <text class="st5" transform="translate(363.4 140)"><tspan x="0" y="0">WV</tspan></text>
  </g>
  <g class="st4">
    <text class="st5" transform="translate(342.6 125.4)"><tspan x="0" y="0">OH</tspan></text>
  </g>
  <g class="st4">
    <text class="st5" transform="translate(320.9 130.3)"><tspan x="0" y="0">IN</tspan></text>
  </g>
  <g class="st4">
    <text class="st5" transform="translate(297.2 130.6)"><tspan x="0" y="0">IL</tspan></text>
  </g>
  <g class="st4">
    <text class="st5" transform="translate(283.2 84.4)"><tspan x="0" y="0">WI</tspan></text>
  </g>
  <g class="st4">
    <text class="st5" transform="translate(383.8 167.6)"><tspan x="0" y="0">NC</tspan></text>
  </g>
  <g class="st4">
    <text class="st5" transform="translate(321.6 174.5)"><tspan x="0" y="0">TN</tspan></text>
  </g>
  <g class="st4">
    <text class="st5" transform="translate(268.9 188.1)"><tspan x="0" y="0">AR</tspan></text>
  </g>
  <g class="st4">
    <text class="st5" transform="translate(268 151.6)"><tspan x="0" y="0">MO</tspan></text>
  </g>
  <g class="st4">
    <text class="st5" transform="translate(351.4 206.1)"><tspan x="0" y="0">GA</tspan></text>
  </g>
  <g class="st4">
    <text class="st5" transform="translate(372.4 189.2)"><tspan x="0" y="0">SC</tspan></text>
  </g>
  <g class="st4">
    <text class="st5" transform="translate(333.5 154.6)"><tspan x="0" y="0">KY</tspan></text>
  </g>
  <g class="st4">
    <text class="st5" transform="translate(321.6 205.8)"><tspan x="0" y="0">AL</tspan></text>
  </g>
  <g class="st4">
    <text class="st5" transform="translate(270.4 220.4)"><tspan x="0" y="0">LA</tspan></text>
  </g>
  <g class="st4">
    <text class="st5" transform="translate(293.9 205.8)"><tspan x="0" y="0">MS</tspan></text>
  </g>
  <g class="st4">
    <text class="st5" transform="translate(260.1 111.1)"><tspan x="0" y="0">IA</tspan></text>
  </g>
  <g class="st4">
    <text class="st5" transform="translate(247.8 69.3)"><tspan x="0" y="0">MN</tspan></text>
  </g>
  <g class="st4">
    <text class="st5" transform="translate(225.7 184.2)"><tspan x="0" y="0">OK</tspan></text>
  </g>
  <g class="st4">
    <text class="st5" transform="translate(209.9 220.7)"><tspan x="0" y="0">TX</tspan></text>
  </g>
  <g class="st4">
    <text class="st5" transform="translate(149.9 186.6)"><tspan x="0" y="0">NM</tspan></text>
  </g>
  <g class="st4">
    <text class="st5" transform="translate(219 150.1)"><tspan x="0" y="0">KS</tspan></text>
  </g>
  <g class="st4">
    <text class="st5" transform="translate(206.8 118.1)"><tspan x="0" y="0">NE</tspan></text>
  </g>
  <g class="st4">
    <text class="st5" transform="translate(203.4 86.4)"><tspan x="0" y="0">SD</tspan></text>
  </g>
  <g class="st4">
    <text class="st5" transform="translate(204.6 55.3)"><tspan x="0" y="0">ND</tspan></text>
  </g>
  <g class="st4">
    <text class="st5" transform="translate(147.2 96.2)"><tspan x="0" y="0">WY</tspan></text>
  </g>
  <g class="st4">
    <text class="st5" transform="translate(138.4 54.8)"><tspan x="0" y="0">MT</tspan></text>
  </g>
  <g class="st4">
    <text class="st5" transform="translate(157.5 142.4)"><tspan x="0" y="0">CO</tspan></text>
  </g>
  <g class="st4">
    <text class="st5" transform="translate(111.2 135.1)"><tspan x="0" y="0">UT</tspan></text>
  </g>
  <g class="st4">
    <text class="st5" transform="translate(102.4 183.8)"><tspan x="0" y="0">AZ</tspan></text>
  </g>
  <g class="st4">
    <text class="st5" transform="translate(70.5 123)"><tspan x="0" y="0">NV</tspan></text>
  </g>
  <g class="st4">
    <text class="st5" transform="translate(50.4 67)"><tspan x="0" y="0">OR</tspan></text>
  </g>
  <g class="st4">
    <text class="st5" transform="translate(64.4 35.3)"><tspan x="0" y="0">WA</tspan></text>
  </g>
  <g class="st4">
    <text class="st5" transform="translate(101.8 81.6)"><tspan x="0" y="0">ID</tspan></text>
  </g>
  <g class="st4">
    <text class="st5" transform="translate(40.5 147.3)"><tspan x="0" y="0">CA</tspan></text>
  </g>
  <g class="st4">
    <text class="st5" transform="translate(326.7 99)"><tspan x="0" y="0">MI</tspan></text>
  </g>
  <rect class="st0" x="9.7" y="4.9"/>
  <rect class="st0" x="9.7" y="4.9"/>
  <rect class="st0" x="9.7" y="4.9"/>
  <rect class="st0" x="9.7" y="4.9"/>
  <rect class="st0" x="9.7" y="4.9"/>
  <rect class="st0" x="9.7" y="4.9"/>
  <rect class="st0" x="9.7" y="4.9"/>
  <rect class="st0" x="9.7" y="4.9"/>
  <rect class="st0" x="9.7" y="4.9"/>
  <rect class="st0" x="9.7" y="4.9"/>
  <rect class="st0" x="9.7" y="4.9"/>
</svg>